<?xml version="1.0" encoding="UTF-8" standalone="no"?>
<!DOCTYPE svg PUBLIC "-//W3C//DTD SVG 1.1//EN"
 "http://www.w3.org/Graphics/SVG/1.1/DTD/svg11.dtd">
<!-- Generated by graphviz version 8.0.3 (20230416.2022)
 -->
<!-- Pages: 1 -->
<svg width="462pt" height="100pt"
 viewBox="0.00 0.00 462.00 100.00" xmlns="http://www.w3.org/2000/svg" xmlns:xlink="http://www.w3.org/1999/xlink">
<g id="graph0" class="graph" transform="scale(1 1) rotate(0) translate(4 96)">
<polygon fill="white" stroke="none" points="-4,4 -4,-96 458,-96 458,4 -4,4"/>
<!-- 1813566003744 -->
<g id="node1" class="node">
<title>1813566003744</title>
<polygon fill="none" stroke="black" points="0,-55.5 0,-91.5 164,-91.5 164,-55.5 0,-55.5"/>
<text text-anchor="middle" x="40.5" y="-69.8" font-family="Times New Roman,serif" font-size="14.00">data 1.0000</text>
<polyline fill="none" stroke="black" points="81,-55.5 81,-91.5"/>
<text text-anchor="middle" x="122.5" y="-69.8" font-family="Times New Roman,serif" font-size="14.00">grad 0.0000</text>
</g>
<!-- 1813565849168add -->
<g id="node4" class="node">
<title>1813565849168add</title>
<ellipse fill="none" stroke="black" cx="227" cy="-45.5" rx="27" ry="18"/>
<text text-anchor="middle" x="227" y="-41.8" font-family="Times New Roman,serif" font-size="14.00">add</text>
</g>
<!-- 1813566003744&#45;&gt;1813565849168add -->
<g id="edge2" class="edge">
<title>1813566003744&#45;&gt;1813565849168add</title>
<path fill="none" stroke="black" d="M163.69,-57.7C172.93,-55.89 181.95,-54.12 190.14,-52.52"/>
<polygon fill="black" stroke="black" points="190.59,-55.8 199.73,-50.45 189.24,-48.94 190.59,-55.8"/>
</g>
<!-- 1813566009888 -->
<g id="node2" class="node">
<title>1813566009888</title>
<polygon fill="none" stroke="black" points="0,-0.5 0,-36.5 164,-36.5 164,-0.5 0,-0.5"/>
<text text-anchor="middle" x="40.5" y="-14.8" font-family="Times New Roman,serif" font-size="14.00">data 2.0000</text>
<polyline fill="none" stroke="black" points="81,-0.5 81,-36.5"/>
<text text-anchor="middle" x="122.5" y="-14.8" font-family="Times New Roman,serif" font-size="14.00">grad 0.0000</text>
</g>
<!-- 1813566009888&#45;&gt;1813565849168add -->
<g id="edge3" class="edge">
<title>1813566009888&#45;&gt;1813565849168add</title>
<path fill="none" stroke="black" d="M163.69,-33.74C172.93,-35.48 181.95,-37.18 190.14,-38.73"/>
<polygon fill="black" stroke="black" points="189.25,-42.31 199.73,-40.73 190.55,-35.43 189.25,-42.31"/>
</g>
<!-- 1813565849168 -->
<g id="node3" class="node">
<title>1813565849168</title>
<polygon fill="none" stroke="black" points="290,-27.5 290,-63.5 454,-63.5 454,-27.5 290,-27.5"/>
<text text-anchor="middle" x="330.5" y="-41.8" font-family="Times New Roman,serif" font-size="14.00">data 3.0000</text>
<polyline fill="none" stroke="black" points="371,-27.5 371,-63.5"/>
<text text-anchor="middle" x="412.5" y="-41.8" font-family="Times New Roman,serif" font-size="14.00">grad 0.0000</text>
</g>
<!-- 1813565849168add&#45;&gt;1813565849168 -->
<g id="edge1" class="edge">
<title>1813565849168add&#45;&gt;1813565849168</title>
<path fill="none" stroke="black" d="M254.23,-45.5C261.7,-45.5 270.3,-45.5 279.37,-45.5"/>
<polygon fill="black" stroke="black" points="279.19,-49 289.19,-45.5 279.19,-42 279.19,-49"/>
</g>
</g>
</svg>
