<?xml version="1.0" encoding="UTF-8" standalone="no"?>
<!DOCTYPE svg PUBLIC "-//W3C//DTD SVG 1.1//EN"
 "http://www.w3.org/Graphics/SVG/1.1/DTD/svg11.dtd">
<!-- Generated by graphviz version 8.0.3 (20230416.2022)
 -->
<!-- Pages: 1 -->
<svg width="3369pt" height="350pt"
 viewBox="0.00 0.00 3368.99 350.00" xmlns="http://www.w3.org/2000/svg" xmlns:xlink="http://www.w3.org/1999/xlink">
<g id="graph0" class="graph" transform="scale(1 1) rotate(0) translate(4 346)">
<polygon fill="white" stroke="none" points="-4,4 -4,-346 3364.99,-346 3364.99,4 -4,4"/>
<!-- 2128283871232 -->
<g id="node1" class="node">
<title>2128283871232</title>
<polygon fill="none" stroke="black" points="317.5,-305.5 317.5,-341.5 501.5,-341.5 501.5,-305.5 317.5,-305.5"/>
<text text-anchor="middle" x="327.5" y="-319.8" font-family="Times New Roman,serif" font-size="14.00"> </text>
<polyline fill="none" stroke="black" points="337.5,-305.5 337.5,-341.5"/>
<text text-anchor="middle" x="378" y="-319.8" font-family="Times New Roman,serif" font-size="14.00">data 1.0490</text>
<polyline fill="none" stroke="black" points="418.5,-305.5 418.5,-341.5"/>
<text text-anchor="middle" x="460" y="-319.8" font-family="Times New Roman,serif" font-size="14.00">grad 2.5104</text>
</g>
<!-- 2128284501952+ -->
<g id="node30" class="node">
<title>2128284501952+</title>
<ellipse fill="none" stroke="black" cx="567" cy="-295.5" rx="27" ry="18"/>
<text text-anchor="middle" x="567" y="-291.8" font-family="Times New Roman,serif" font-size="14.00">+</text>
</g>
<!-- 2128283871232&#45;&gt;2128284501952+ -->
<g id="edge24" class="edge">
<title>2128283871232&#45;&gt;2128284501952+</title>
<path fill="none" stroke="black" d="M501.4,-307.13C511.39,-305.33 521.07,-303.59 529.77,-302.02"/>
<polygon fill="black" stroke="black" points="530.37,-305.29 539.59,-300.08 529.13,-298.4 530.37,-305.29"/>
</g>
<!-- 2128284502048 -->
<g id="node2" class="node">
<title>2128284502048</title>
<polygon fill="none" stroke="black" points="1269.99,-249.5 1269.99,-285.5 1462.99,-285.5 1462.99,-249.5 1269.99,-249.5"/>
<text text-anchor="middle" x="1279.99" y="-263.8" font-family="Times New Roman,serif" font-size="14.00"> </text>
<polyline fill="none" stroke="black" points="1289.99,-249.5 1289.99,-285.5"/>
<text text-anchor="middle" x="1332.99" y="-263.8" font-family="Times New Roman,serif" font-size="14.00">data &#45;0.3443</text>
<polyline fill="none" stroke="black" points="1375.99,-249.5 1375.99,-285.5"/>
<text text-anchor="middle" x="1419.49" y="-263.8" font-family="Times New Roman,serif" font-size="14.00">grad &#45;3.6776</text>
</g>
<!-- 2128284502096+ -->
<g id="node5" class="node">
<title>2128284502096+</title>
<ellipse fill="none" stroke="black" cx="1525.99" cy="-239.5" rx="27" ry="18"/>
<text text-anchor="middle" x="1525.99" y="-235.8" font-family="Times New Roman,serif" font-size="14.00">+</text>
</g>
<!-- 2128284502048&#45;&gt;2128284502096+ -->
<g id="edge18" class="edge">
<title>2128284502048&#45;&gt;2128284502096+</title>
<path fill="none" stroke="black" d="M1462.75,-250.57C1471.9,-248.94 1480.75,-247.37 1488.76,-245.94"/>
<polygon fill="black" stroke="black" points="1489.24,-249.23 1498.47,-244.04 1488.01,-242.34 1489.24,-249.23"/>
</g>
<!-- 2128284502048* -->
<g id="node3" class="node">
<title>2128284502048*</title>
<ellipse fill="none" stroke="black" cx="1206.99" cy="-267.5" rx="27" ry="18"/>
<text text-anchor="middle" x="1206.99" y="-263.8" font-family="Times New Roman,serif" font-size="14.00">*</text>
</g>
<!-- 2128284502048*&#45;&gt;2128284502048 -->
<g id="edge1" class="edge">
<title>2128284502048*&#45;&gt;2128284502048</title>
<path fill="none" stroke="black" d="M1234.36,-267.5C1241.72,-267.5 1250.2,-267.5 1259.24,-267.5"/>
<polygon fill="black" stroke="black" points="1259.06,-271 1269.06,-267.5 1259.06,-264 1259.06,-271"/>
</g>
<!-- 2128284502096 -->
<g id="node4" class="node">
<title>2128284502096</title>
<polygon fill="none" stroke="black" points="1588.99,-221.5 1588.99,-257.5 1776.99,-257.5 1776.99,-221.5 1588.99,-221.5"/>
<text text-anchor="middle" x="1598.99" y="-235.8" font-family="Times New Roman,serif" font-size="14.00"> </text>
<polyline fill="none" stroke="black" points="1608.99,-221.5 1608.99,-257.5"/>
<text text-anchor="middle" x="1649.49" y="-235.8" font-family="Times New Roman,serif" font-size="14.00">data 0.9557</text>
<polyline fill="none" stroke="black" points="1689.99,-221.5 1689.99,-257.5"/>
<text text-anchor="middle" x="1733.49" y="-235.8" font-family="Times New Roman,serif" font-size="14.00">grad &#45;3.6776</text>
</g>
<!-- 2128284501808ReLU -->
<g id="node24" class="node">
<title>2128284501808ReLU</title>
<ellipse fill="none" stroke="black" cx="1845.49" cy="-239.5" rx="32.49" ry="18"/>
<text text-anchor="middle" x="1845.49" y="-235.8" font-family="Times New Roman,serif" font-size="14.00">ReLU</text>
</g>
<!-- 2128284502096&#45;&gt;2128284501808ReLU -->
<g id="edge29" class="edge">
<title>2128284502096&#45;&gt;2128284501808ReLU</title>
<path fill="none" stroke="black" d="M1776.89,-239.5C1785.46,-239.5 1793.83,-239.5 1801.6,-239.5"/>
<polygon fill="black" stroke="black" points="1801.51,-243 1811.51,-239.5 1801.51,-236 1801.51,-243"/>
</g>
<!-- 2128284502096+&#45;&gt;2128284502096 -->
<g id="edge2" class="edge">
<title>2128284502096+&#45;&gt;2128284502096</title>
<path fill="none" stroke="black" d="M1553.29,-239.5C1560.68,-239.5 1569.19,-239.5 1578.24,-239.5"/>
<polygon fill="black" stroke="black" points="1578.08,-243 1588.08,-239.5 1578.08,-236 1578.08,-243"/>
</g>
<!-- 2128284502144 -->
<g id="node6" class="node">
<title>2128284502144</title>
<polygon fill="none" stroke="black" points="2866.99,-110.5 2866.99,-146.5 3050.99,-146.5 3050.99,-110.5 2866.99,-110.5"/>
<text text-anchor="middle" x="2876.99" y="-124.8" font-family="Times New Roman,serif" font-size="14.00"> </text>
<polyline fill="none" stroke="black" points="2886.99,-110.5 2886.99,-146.5"/>
<text text-anchor="middle" x="2927.49" y="-124.8" font-family="Times New Roman,serif" font-size="14.00">data 3.3811</text>
<polyline fill="none" stroke="black" points="2967.99,-110.5 2967.99,-146.5"/>
<text text-anchor="middle" x="3009.49" y="-124.8" font-family="Times New Roman,serif" font-size="14.00">grad 1.0000</text>
</g>
<!-- 2128284502288* -->
<g id="node12" class="node">
<title>2128284502288*</title>
<ellipse fill="none" stroke="black" cx="3113.99" cy="-100.5" rx="27" ry="18"/>
<text text-anchor="middle" x="3113.99" y="-96.8" font-family="Times New Roman,serif" font-size="14.00">*</text>
</g>
<!-- 2128284502144&#45;&gt;2128284502288* -->
<g id="edge25" class="edge">
<title>2128284502144&#45;&gt;2128284502288*</title>
<path fill="none" stroke="black" d="M3050.76,-111.89C3059.94,-110.21 3068.84,-108.58 3076.9,-107.1"/>
<polygon fill="black" stroke="black" points="3077.47,-110.37 3086.68,-105.13 3076.21,-103.49 3077.47,-110.37"/>
</g>
<!-- 2128284502144+ -->
<g id="node7" class="node">
<title>2128284502144+</title>
<ellipse fill="none" stroke="black" cx="2803.99" cy="-128.5" rx="27" ry="18"/>
<text text-anchor="middle" x="2803.99" y="-124.8" font-family="Times New Roman,serif" font-size="14.00">+</text>
</g>
<!-- 2128284502144+&#45;&gt;2128284502144 -->
<g id="edge3" class="edge">
<title>2128284502144+&#45;&gt;2128284502144</title>
<path fill="none" stroke="black" d="M2831.29,-128.5C2838.72,-128.5 2847.28,-128.5 2856.38,-128.5"/>
<polygon fill="black" stroke="black" points="2856.26,-132 2866.26,-128.5 2856.26,-125 2856.26,-132"/>
</g>
<!-- 2128284502192 -->
<g id="node8" class="node">
<title>2128284502192</title>
<polygon fill="none" stroke="black" points="2551.99,-55.5 2551.99,-91.5 2740.99,-91.5 2740.99,-55.5 2551.99,-55.5"/>
<text text-anchor="middle" x="2561.99" y="-69.8" font-family="Times New Roman,serif" font-size="14.00"> </text>
<polyline fill="none" stroke="black" points="2571.99,-55.5 2571.99,-91.5"/>
<text text-anchor="middle" x="2614.99" y="-69.8" font-family="Times New Roman,serif" font-size="14.00">data &#45;1.0000</text>
<polyline fill="none" stroke="black" points="2657.99,-55.5 2657.99,-91.5"/>
<text text-anchor="middle" x="2699.49" y="-69.8" font-family="Times New Roman,serif" font-size="14.00">grad 0.0000</text>
</g>
<!-- 2128284502240**&#45;1 -->
<g id="node10" class="node">
<title>2128284502240**&#45;1</title>
<ellipse fill="none" stroke="black" cx="2803.99" cy="-73.5" rx="27" ry="18"/>
<text text-anchor="middle" x="2803.99" y="-69.8" font-family="Times New Roman,serif" font-size="14.00">**&#45;1</text>
</g>
<!-- 2128284502192&#45;&gt;2128284502240**&#45;1 -->
<g id="edge20" class="edge">
<title>2128284502192&#45;&gt;2128284502240**&#45;1</title>
<path fill="none" stroke="black" d="M2740.64,-73.5C2749.5,-73.5 2758.09,-73.5 2765.91,-73.5"/>
<polygon fill="black" stroke="black" points="2765.77,-77 2775.77,-73.5 2765.77,-70 2765.77,-77"/>
</g>
<!-- 2128284502240 -->
<g id="node9" class="node">
<title>2128284502240</title>
<polygon fill="none" stroke="black" points="2866.99,-55.5 2866.99,-91.5 3050.99,-91.5 3050.99,-55.5 2866.99,-55.5"/>
<text text-anchor="middle" x="2876.99" y="-69.8" font-family="Times New Roman,serif" font-size="14.00"> </text>
<polyline fill="none" stroke="black" points="2886.99,-55.5 2886.99,-91.5"/>
<text text-anchor="middle" x="2927.49" y="-69.8" font-family="Times New Roman,serif" font-size="14.00">data 1.0000</text>
<polyline fill="none" stroke="black" points="2967.99,-55.5 2967.99,-91.5"/>
<text text-anchor="middle" x="3009.49" y="-69.8" font-family="Times New Roman,serif" font-size="14.00">grad 3.3811</text>
</g>
<!-- 2128284502240&#45;&gt;2128284502288* -->
<g id="edge12" class="edge">
<title>2128284502240&#45;&gt;2128284502288*</title>
<path fill="none" stroke="black" d="M3050.76,-89.52C3059.85,-91.12 3068.67,-92.68 3076.67,-94.09"/>
<polygon fill="black" stroke="black" points="3075.92,-97.69 3086.38,-95.98 3077.14,-90.8 3075.92,-97.69"/>
</g>
<!-- 2128284502240**&#45;1&#45;&gt;2128284502240 -->
<g id="edge4" class="edge">
<title>2128284502240**&#45;1&#45;&gt;2128284502240</title>
<path fill="none" stroke="black" d="M2831.29,-73.5C2838.72,-73.5 2847.28,-73.5 2856.38,-73.5"/>
<polygon fill="black" stroke="black" points="2856.26,-77 2866.26,-73.5 2856.26,-70 2856.26,-77"/>
</g>
<!-- 2128284502288 -->
<g id="node11" class="node">
<title>2128284502288</title>
<polygon fill="none" stroke="black" points="3176.99,-82.5 3176.99,-118.5 3360.99,-118.5 3360.99,-82.5 3176.99,-82.5"/>
<text text-anchor="middle" x="3186.99" y="-96.8" font-family="Times New Roman,serif" font-size="14.00"> </text>
<polyline fill="none" stroke="black" points="3196.99,-82.5 3196.99,-118.5"/>
<text text-anchor="middle" x="3237.49" y="-96.8" font-family="Times New Roman,serif" font-size="14.00">data 3.3811</text>
<polyline fill="none" stroke="black" points="3277.99,-82.5 3277.99,-118.5"/>
<text text-anchor="middle" x="3319.49" y="-96.8" font-family="Times New Roman,serif" font-size="14.00">grad 1.0000</text>
</g>
<!-- 2128284502288*&#45;&gt;2128284502288 -->
<g id="edge5" class="edge">
<title>2128284502288*&#45;&gt;2128284502288</title>
<path fill="none" stroke="black" d="M3141.29,-100.5C3148.72,-100.5 3157.28,-100.5 3166.38,-100.5"/>
<polygon fill="black" stroke="black" points="3166.26,-104 3176.26,-100.5 3166.26,-97 3166.26,-104"/>
</g>
<!-- 2128284501280 -->
<g id="node13" class="node">
<title>2128284501280</title>
<polygon fill="none" stroke="black" points="950.99,-222.5 950.99,-258.5 1143.99,-258.5 1143.99,-222.5 950.99,-222.5"/>
<text text-anchor="middle" x="960.99" y="-236.8" font-family="Times New Roman,serif" font-size="14.00"> </text>
<polyline fill="none" stroke="black" points="970.99,-222.5 970.99,-258.5"/>
<text text-anchor="middle" x="1013.99" y="-236.8" font-family="Times New Roman,serif" font-size="14.00">data &#45;0.4971</text>
<polyline fill="none" stroke="black" points="1056.99,-222.5 1056.99,-258.5"/>
<text text-anchor="middle" x="1100.49" y="-236.8" font-family="Times New Roman,serif" font-size="14.00">grad &#45;1.8548</text>
</g>
<!-- 2128284501280&#45;&gt;2128284502048* -->
<g id="edge15" class="edge">
<title>2128284501280&#45;&gt;2128284502048*</title>
<path fill="none" stroke="black" d="M1143.75,-256.83C1152.9,-258.4 1161.75,-259.92 1169.76,-261.29"/>
<polygon fill="black" stroke="black" points="1169.02,-264.88 1179.47,-263.12 1170.21,-257.99 1169.02,-264.88"/>
</g>
<!-- 2128284501472 -->
<g id="node14" class="node">
<title>2128284501472</title>
<polygon fill="none" stroke="black" points="1272.49,-194.5 1272.49,-230.5 1460.49,-230.5 1460.49,-194.5 1272.49,-194.5"/>
<text text-anchor="middle" x="1282.49" y="-208.8" font-family="Times New Roman,serif" font-size="14.00"> </text>
<polyline fill="none" stroke="black" points="1292.49,-194.5 1292.49,-230.5"/>
<text text-anchor="middle" x="1332.99" y="-208.8" font-family="Times New Roman,serif" font-size="14.00">data 1.6678</text>
<polyline fill="none" stroke="black" points="1373.49,-194.5 1373.49,-230.5"/>
<text text-anchor="middle" x="1416.99" y="-208.8" font-family="Times New Roman,serif" font-size="14.00">grad &#45;3.6776</text>
</g>
<!-- 2128284501472&#45;&gt;2128284502096+ -->
<g id="edge27" class="edge">
<title>2128284501472&#45;&gt;2128284502096+</title>
<path fill="none" stroke="black" d="M1460.48,-228.44C1470.39,-230.14 1479.99,-231.78 1488.62,-233.26"/>
<polygon fill="black" stroke="black" points="1487.91,-236.86 1498.35,-235.1 1489.09,-229.97 1487.91,-236.86"/>
</g>
<!-- 2128284501520 -->
<g id="node15" class="node">
<title>2128284501520</title>
<polygon fill="none" stroke="black" points="2554.49,-110.5 2554.49,-146.5 2738.49,-146.5 2738.49,-110.5 2554.49,-110.5"/>
<text text-anchor="middle" x="2564.49" y="-124.8" font-family="Times New Roman,serif" font-size="14.00"> </text>
<polyline fill="none" stroke="black" points="2574.49,-110.5 2574.49,-146.5"/>
<text text-anchor="middle" x="2614.99" y="-124.8" font-family="Times New Roman,serif" font-size="14.00">data 0.0000</text>
<polyline fill="none" stroke="black" points="2655.49,-110.5 2655.49,-146.5"/>
<text text-anchor="middle" x="2696.99" y="-124.8" font-family="Times New Roman,serif" font-size="14.00">grad 1.0000</text>
</g>
<!-- 2128284501520&#45;&gt;2128284502144+ -->
<g id="edge21" class="edge">
<title>2128284501520&#45;&gt;2128284502144+</title>
<path fill="none" stroke="black" d="M2738.39,-128.5C2747.99,-128.5 2757.31,-128.5 2765.75,-128.5"/>
<polygon fill="black" stroke="black" points="2765.65,-132 2775.65,-128.5 2765.65,-125 2765.65,-132"/>
</g>
<!-- 2128284501568 -->
<g id="node16" class="node">
<title>2128284501568</title>
<polygon fill="none" stroke="black" points="2552.49,-0.5 2552.49,-36.5 2740.49,-36.5 2740.49,-0.5 2552.49,-0.5"/>
<text text-anchor="middle" x="2562.49" y="-14.8" font-family="Times New Roman,serif" font-size="14.00"> </text>
<polyline fill="none" stroke="black" points="2572.49,-0.5 2572.49,-36.5"/>
<text text-anchor="middle" x="2612.99" y="-14.8" font-family="Times New Roman,serif" font-size="14.00">data 1.0000</text>
<polyline fill="none" stroke="black" points="2653.49,-0.5 2653.49,-36.5"/>
<text text-anchor="middle" x="2696.99" y="-14.8" font-family="Times New Roman,serif" font-size="14.00">grad &#45;3.3811</text>
</g>
<!-- 2128284501568&#45;&gt;2128284502240**&#45;1 -->
<g id="edge14" class="edge">
<title>2128284501568&#45;&gt;2128284502240**&#45;1</title>
<path fill="none" stroke="black" d="M2714.02,-36.44C2723.15,-39.27 2732.35,-42.32 2740.99,-45.5 2751.19,-49.25 2762.07,-53.93 2771.82,-58.37"/>
<polygon fill="black" stroke="black" points="2769.95,-61.83 2780.5,-62.88 2772.91,-55.49 2769.95,-61.83"/>
</g>
<!-- 2128284501616 -->
<g id="node17" class="node">
<title>2128284501616</title>
<polygon fill="none" stroke="black" points="1913.99,-166.5 1913.99,-202.5 2106.99,-202.5 2106.99,-166.5 1913.99,-166.5"/>
<text text-anchor="middle" x="1923.99" y="-180.8" font-family="Times New Roman,serif" font-size="14.00"> </text>
<polyline fill="none" stroke="black" points="1933.99,-166.5 1933.99,-202.5"/>
<text text-anchor="middle" x="1976.99" y="-180.8" font-family="Times New Roman,serif" font-size="14.00">data &#45;2.7945</text>
<polyline fill="none" stroke="black" points="2019.99,-166.5 2019.99,-202.5"/>
<text text-anchor="middle" x="2063.49" y="-180.8" font-family="Times New Roman,serif" font-size="14.00">grad &#45;3.6776</text>
</g>
<!-- 2128284501664+ -->
<g id="node19" class="node">
<title>2128284501664+</title>
<ellipse fill="none" stroke="black" cx="2169.99" cy="-211.5" rx="27" ry="18"/>
<text text-anchor="middle" x="2169.99" y="-207.8" font-family="Times New Roman,serif" font-size="14.00">+</text>
</g>
<!-- 2128284501616&#45;&gt;2128284501664+ -->
<g id="edge22" class="edge">
<title>2128284501616&#45;&gt;2128284501664+</title>
<path fill="none" stroke="black" d="M2106.74,-200.83C2115.9,-202.4 2124.75,-203.92 2132.75,-205.29"/>
<polygon fill="black" stroke="black" points="2132.02,-208.88 2142.46,-207.12 2133.2,-201.99 2132.02,-208.88"/>
</g>
<!-- 2128284501664 -->
<g id="node18" class="node">
<title>2128284501664</title>
<polygon fill="none" stroke="black" points="2232.99,-193.5 2232.99,-229.5 2425.99,-229.5 2425.99,-193.5 2232.99,-193.5"/>
<text text-anchor="middle" x="2242.99" y="-207.8" font-family="Times New Roman,serif" font-size="14.00"> </text>
<polyline fill="none" stroke="black" points="2252.99,-193.5 2252.99,-229.5"/>
<text text-anchor="middle" x="2295.99" y="-207.8" font-family="Times New Roman,serif" font-size="14.00">data &#45;1.8388</text>
<polyline fill="none" stroke="black" points="2338.99,-193.5 2338.99,-229.5"/>
<text text-anchor="middle" x="2382.49" y="-207.8" font-family="Times New Roman,serif" font-size="14.00">grad &#45;3.6776</text>
</g>
<!-- 2128284502000**2 -->
<g id="node32" class="node">
<title>2128284502000**2</title>
<ellipse fill="none" stroke="black" cx="2488.99" cy="-183.5" rx="27" ry="18"/>
<text text-anchor="middle" x="2488.99" y="-179.8" font-family="Times New Roman,serif" font-size="14.00">**2</text>
</g>
<!-- 2128284501664&#45;&gt;2128284502000**2 -->
<g id="edge17" class="edge">
<title>2128284501664&#45;&gt;2128284502000**2</title>
<path fill="none" stroke="black" d="M2425.74,-194.57C2434.9,-192.94 2443.75,-191.37 2451.75,-189.94"/>
<polygon fill="black" stroke="black" points="2452.23,-193.23 2461.46,-188.04 2451.01,-186.34 2452.23,-193.23"/>
</g>
<!-- 2128284501664+&#45;&gt;2128284501664 -->
<g id="edge6" class="edge">
<title>2128284501664+&#45;&gt;2128284501664</title>
<path fill="none" stroke="black" d="M2197.35,-211.5C2204.71,-211.5 2213.2,-211.5 2222.23,-211.5"/>
<polygon fill="black" stroke="black" points="2222.06,-215 2232.06,-211.5 2222.06,-208 2222.06,-215"/>
</g>
<!-- 2128284501712 -->
<g id="node20" class="node">
<title>2128284501712</title>
<polygon fill="none" stroke="black" points="2237.49,-138.5 2237.49,-174.5 2421.49,-174.5 2421.49,-138.5 2237.49,-138.5"/>
<text text-anchor="middle" x="2247.49" y="-152.8" font-family="Times New Roman,serif" font-size="14.00"> </text>
<polyline fill="none" stroke="black" points="2257.49,-138.5 2257.49,-174.5"/>
<text text-anchor="middle" x="2297.99" y="-152.8" font-family="Times New Roman,serif" font-size="14.00">data 2.0000</text>
<polyline fill="none" stroke="black" points="2338.49,-138.5 2338.49,-174.5"/>
<text text-anchor="middle" x="2379.99" y="-152.8" font-family="Times New Roman,serif" font-size="14.00">grad 0.0000</text>
</g>
<!-- 2128284501712&#45;&gt;2128284502000**2 -->
<g id="edge31" class="edge">
<title>2128284501712&#45;&gt;2128284502000**2</title>
<path fill="none" stroke="black" d="M2421.19,-172.05C2431.99,-173.9 2442.47,-175.7 2451.82,-177.3"/>
<polygon fill="black" stroke="black" points="2451.14,-180.91 2461.59,-179.15 2452.32,-174.01 2451.14,-180.91"/>
</g>
<!-- 2128284501760 -->
<g id="node21" class="node">
<title>2128284501760</title>
<polygon fill="none" stroke="black" points="955.49,-277.5 955.49,-313.5 1139.49,-313.5 1139.49,-277.5 955.49,-277.5"/>
<text text-anchor="middle" x="965.49" y="-291.8" font-family="Times New Roman,serif" font-size="14.00"> </text>
<polyline fill="none" stroke="black" points="975.49,-277.5 975.49,-313.5"/>
<text text-anchor="middle" x="1015.99" y="-291.8" font-family="Times New Roman,serif" font-size="14.00">data 0.5044</text>
<polyline fill="none" stroke="black" points="1056.49,-277.5 1056.49,-313.5"/>
<text text-anchor="middle" x="1097.99" y="-291.8" font-family="Times New Roman,serif" font-size="14.00">grad 2.5104</text>
</g>
<!-- 2128284501760&#45;&gt;2128284502048* -->
<g id="edge23" class="edge">
<title>2128284501760&#45;&gt;2128284502048*</title>
<path fill="none" stroke="black" d="M1139.2,-279.37C1149.99,-277.46 1160.48,-275.59 1169.82,-273.93"/>
<polygon fill="black" stroke="black" points="1170.36,-277.21 1179.59,-272.02 1169.14,-270.32 1170.36,-277.21"/>
</g>
<!-- 2128284501760ReLU -->
<g id="node22" class="node">
<title>2128284501760ReLU</title>
<ellipse fill="none" stroke="black" cx="882.5" cy="-295.5" rx="32.49" ry="18"/>
<text text-anchor="middle" x="882.5" y="-291.8" font-family="Times New Roman,serif" font-size="14.00">ReLU</text>
</g>
<!-- 2128284501760ReLU&#45;&gt;2128284501760 -->
<g id="edge7" class="edge">
<title>2128284501760ReLU&#45;&gt;2128284501760</title>
<path fill="none" stroke="black" d="M915.31,-295.5C924.21,-295.5 934.38,-295.5 945.03,-295.5"/>
<polygon fill="black" stroke="black" points="944.82,-299 954.82,-295.5 944.82,-292 944.82,-299"/>
</g>
<!-- 2128284501808 -->
<g id="node23" class="node">
<title>2128284501808</title>
<polygon fill="none" stroke="black" points="1916.49,-221.5 1916.49,-257.5 2104.49,-257.5 2104.49,-221.5 1916.49,-221.5"/>
<text text-anchor="middle" x="1926.49" y="-235.8" font-family="Times New Roman,serif" font-size="14.00"> </text>
<polyline fill="none" stroke="black" points="1936.49,-221.5 1936.49,-257.5"/>
<text text-anchor="middle" x="1976.99" y="-235.8" font-family="Times New Roman,serif" font-size="14.00">data 0.9557</text>
<polyline fill="none" stroke="black" points="2017.49,-221.5 2017.49,-257.5"/>
<text text-anchor="middle" x="2060.99" y="-235.8" font-family="Times New Roman,serif" font-size="14.00">grad &#45;3.6776</text>
</g>
<!-- 2128284501808&#45;&gt;2128284501664+ -->
<g id="edge16" class="edge">
<title>2128284501808&#45;&gt;2128284501664+</title>
<path fill="none" stroke="black" d="M2104.47,-222.97C2114.38,-221.21 2123.98,-219.5 2132.61,-217.97"/>
<polygon fill="black" stroke="black" points="2133.11,-221.25 2142.35,-216.06 2131.89,-214.36 2133.11,-221.25"/>
</g>
<!-- 2128284501808ReLU&#45;&gt;2128284501808 -->
<g id="edge8" class="edge">
<title>2128284501808ReLU&#45;&gt;2128284501808</title>
<path fill="none" stroke="black" d="M1878.31,-239.5C1886.61,-239.5 1896.02,-239.5 1905.9,-239.5"/>
<polygon fill="black" stroke="black" points="1905.78,-243 1915.78,-239.5 1905.78,-236 1905.78,-243"/>
</g>
<!-- 2128284501856 -->
<g id="node25" class="node">
<title>2128284501856</title>
<polygon fill="none" stroke="black" points="0.5,-278.5 0.5,-314.5 188.5,-314.5 188.5,-278.5 0.5,-278.5"/>
<text text-anchor="middle" x="10.5" y="-292.8" font-family="Times New Roman,serif" font-size="14.00"> </text>
<polyline fill="none" stroke="black" points="20.5,-278.5 20.5,-314.5"/>
<text text-anchor="middle" x="61" y="-292.8" font-family="Times New Roman,serif" font-size="14.00">data 1.6717</text>
<polyline fill="none" stroke="black" points="101.5,-278.5 101.5,-314.5"/>
<text text-anchor="middle" x="145" y="-292.8" font-family="Times New Roman,serif" font-size="14.00">grad &#45;1.1948</text>
</g>
<!-- 2128284501904* -->
<g id="node28" class="node">
<title>2128284501904*</title>
<ellipse fill="none" stroke="black" cx="252" cy="-268.5" rx="27" ry="18"/>
<text text-anchor="middle" x="252" y="-264.8" font-family="Times New Roman,serif" font-size="14.00">*</text>
</g>
<!-- 2128284501856&#45;&gt;2128284501904* -->
<g id="edge26" class="edge">
<title>2128284501856&#45;&gt;2128284501904*</title>
<path fill="none" stroke="black" d="M188.2,-279.81C197.59,-278.12 206.68,-276.48 214.89,-275"/>
<polygon fill="black" stroke="black" points="215.26,-278.31 224.48,-273.09 214.02,-271.42 215.26,-278.31"/>
</g>
<!-- 2128283871088 -->
<g id="node26" class="node">
<title>2128283871088</title>
<polygon fill="none" stroke="black" points="0,-223.5 0,-259.5 189,-259.5 189,-223.5 0,-223.5"/>
<text text-anchor="middle" x="10" y="-237.8" font-family="Times New Roman,serif" font-size="14.00"> </text>
<polyline fill="none" stroke="black" points="20,-223.5 20,-259.5"/>
<text text-anchor="middle" x="63" y="-237.8" font-family="Times New Roman,serif" font-size="14.00">data &#45;0.8956</text>
<polyline fill="none" stroke="black" points="106,-223.5 106,-259.5"/>
<text text-anchor="middle" x="147.5" y="-237.8" font-family="Times New Roman,serif" font-size="14.00">grad 4.1966</text>
</g>
<!-- 2128283871088&#45;&gt;2128284501904* -->
<g id="edge30" class="edge">
<title>2128283871088&#45;&gt;2128284501904*</title>
<path fill="none" stroke="black" d="M188.65,-257.67C197.79,-259.26 206.64,-260.8 214.66,-262.19"/>
<polygon fill="black" stroke="black" points="213.94,-265.79 224.39,-264.05 215.13,-258.89 213.94,-265.79"/>
</g>
<!-- 2128284501904 -->
<g id="node27" class="node">
<title>2128284501904</title>
<polygon fill="none" stroke="black" points="315,-250.5 315,-286.5 504,-286.5 504,-250.5 315,-250.5"/>
<text text-anchor="middle" x="325" y="-264.8" font-family="Times New Roman,serif" font-size="14.00"> </text>
<polyline fill="none" stroke="black" points="335,-250.5 335,-286.5"/>
<text text-anchor="middle" x="378" y="-264.8" font-family="Times New Roman,serif" font-size="14.00">data &#45;0.7956</text>
<polyline fill="none" stroke="black" points="421,-250.5 421,-286.5"/>
<text text-anchor="middle" x="462.5" y="-264.8" font-family="Times New Roman,serif" font-size="14.00">grad 2.5104</text>
</g>
<!-- 2128284501904&#45;&gt;2128284501952+ -->
<g id="edge19" class="edge">
<title>2128284501904&#45;&gt;2128284501952+</title>
<path fill="none" stroke="black" d="M503.65,-284.67C512.79,-286.26 521.64,-287.8 529.66,-289.19"/>
<polygon fill="black" stroke="black" points="528.94,-292.79 539.39,-291.05 530.13,-285.89 528.94,-292.79"/>
</g>
<!-- 2128284501904*&#45;&gt;2128284501904 -->
<g id="edge9" class="edge">
<title>2128284501904*&#45;&gt;2128284501904</title>
<path fill="none" stroke="black" d="M279.38,-268.5C286.79,-268.5 295.33,-268.5 304.41,-268.5"/>
<polygon fill="black" stroke="black" points="304.29,-272 314.29,-268.5 304.29,-265 304.29,-272"/>
</g>
<!-- 2128284501952 -->
<g id="node29" class="node">
<title>2128284501952</title>
<polygon fill="none" stroke="black" points="630,-277.5 630,-313.5 814,-313.5 814,-277.5 630,-277.5"/>
<text text-anchor="middle" x="640" y="-291.8" font-family="Times New Roman,serif" font-size="14.00"> </text>
<polyline fill="none" stroke="black" points="650,-277.5 650,-313.5"/>
<text text-anchor="middle" x="690.5" y="-291.8" font-family="Times New Roman,serif" font-size="14.00">data 0.5044</text>
<polyline fill="none" stroke="black" points="731,-277.5 731,-313.5"/>
<text text-anchor="middle" x="772.5" y="-291.8" font-family="Times New Roman,serif" font-size="14.00">grad 2.5104</text>
</g>
<!-- 2128284501952&#45;&gt;2128284501760ReLU -->
<g id="edge13" class="edge">
<title>2128284501952&#45;&gt;2128284501760ReLU</title>
<path fill="none" stroke="black" d="M813.82,-295.5C822.56,-295.5 831.12,-295.5 839.04,-295.5"/>
<polygon fill="black" stroke="black" points="838.77,-299 848.77,-295.5 838.77,-292 838.77,-299"/>
</g>
<!-- 2128284501952+&#45;&gt;2128284501952 -->
<g id="edge10" class="edge">
<title>2128284501952+&#45;&gt;2128284501952</title>
<path fill="none" stroke="black" d="M594.3,-295.5C601.73,-295.5 610.29,-295.5 619.39,-295.5"/>
<polygon fill="black" stroke="black" points="619.27,-299 629.27,-295.5 619.27,-292 619.27,-299"/>
</g>
<!-- 2128284502000 -->
<g id="node31" class="node">
<title>2128284502000</title>
<polygon fill="none" stroke="black" points="2554.49,-165.5 2554.49,-201.5 2738.49,-201.5 2738.49,-165.5 2554.49,-165.5"/>
<text text-anchor="middle" x="2564.49" y="-179.8" font-family="Times New Roman,serif" font-size="14.00"> </text>
<polyline fill="none" stroke="black" points="2574.49,-165.5 2574.49,-201.5"/>
<text text-anchor="middle" x="2614.99" y="-179.8" font-family="Times New Roman,serif" font-size="14.00">data 3.3811</text>
<polyline fill="none" stroke="black" points="2655.49,-165.5 2655.49,-201.5"/>
<text text-anchor="middle" x="2696.99" y="-179.8" font-family="Times New Roman,serif" font-size="14.00">grad 1.0000</text>
</g>
<!-- 2128284502000&#45;&gt;2128284502144+ -->
<g id="edge28" class="edge">
<title>2128284502000&#45;&gt;2128284502144+</title>
<path fill="none" stroke="black" d="M2711.2,-165.54C2721.23,-162.39 2731.44,-158.99 2740.99,-155.5 2750.95,-151.86 2761.6,-147.42 2771.21,-143.21"/>
<polygon fill="black" stroke="black" points="2772.45,-146.04 2780.15,-138.77 2769.6,-139.65 2772.45,-146.04"/>
</g>
<!-- 2128284502000**2&#45;&gt;2128284502000 -->
<g id="edge11" class="edge">
<title>2128284502000**2&#45;&gt;2128284502000</title>
<path fill="none" stroke="black" d="M2516.37,-183.5C2524.38,-183.5 2533.72,-183.5 2543.64,-183.5"/>
<polygon fill="black" stroke="black" points="2543.59,-187 2553.59,-183.5 2543.59,-180 2543.59,-187"/>
</g>
</g>
</svg>
