<?xml version="1.0" encoding="UTF-8" standalone="no"?>
<!DOCTYPE svg PUBLIC "-//W3C//DTD SVG 1.1//EN"
 "http://www.w3.org/Graphics/SVG/1.1/DTD/svg11.dtd">
<!-- Generated by graphviz version 8.0.3 (20230416.2022)
 -->
<!-- Pages: 1 -->
<svg width="3349pt" height="350pt"
 viewBox="0.00 0.00 3348.99 350.00" xmlns="http://www.w3.org/2000/svg" xmlns:xlink="http://www.w3.org/1999/xlink">
<g id="graph0" class="graph" transform="scale(1 1) rotate(0) translate(4 346)">
<polygon fill="white" stroke="none" points="-4,4 -4,-346 3344.99,-346 3344.99,4 -4,4"/>
<!-- 2128283871232 -->
<g id="node1" class="node">
<title>2128283871232</title>
<polygon fill="none" stroke="black" points="317.5,-305.5 317.5,-341.5 501.5,-341.5 501.5,-305.5 317.5,-305.5"/>
<text text-anchor="middle" x="327.5" y="-319.8" font-family="Times New Roman,serif" font-size="14.00"> </text>
<polyline fill="none" stroke="black" points="337.5,-305.5 337.5,-341.5"/>
<text text-anchor="middle" x="378" y="-319.8" font-family="Times New Roman,serif" font-size="14.00">data 1.3000</text>
<polyline fill="none" stroke="black" points="418.5,-305.5 418.5,-341.5"/>
<text text-anchor="middle" x="460" y="-319.8" font-family="Times New Roman,serif" font-size="14.00">grad 0.0000</text>
</g>
<!-- 2128284501952+ -->
<g id="node30" class="node">
<title>2128284501952+</title>
<ellipse fill="none" stroke="black" cx="567" cy="-295.5" rx="27" ry="18"/>
<text text-anchor="middle" x="567" y="-291.8" font-family="Times New Roman,serif" font-size="14.00">+</text>
</g>
<!-- 2128283871232&#45;&gt;2128284501952+ -->
<g id="edge24" class="edge">
<title>2128283871232&#45;&gt;2128284501952+</title>
<path fill="none" stroke="black" d="M501.4,-307.13C511.39,-305.33 521.07,-303.59 529.77,-302.02"/>
<polygon fill="black" stroke="black" points="530.37,-305.29 539.59,-300.08 529.13,-298.4 530.37,-305.29"/>
</g>
<!-- 2128284502048 -->
<g id="node2" class="node">
<title>2128284502048</title>
<polygon fill="none" stroke="black" points="1265.99,-249.5 1265.99,-285.5 1454.99,-285.5 1454.99,-249.5 1265.99,-249.5"/>
<text text-anchor="middle" x="1275.99" y="-263.8" font-family="Times New Roman,serif" font-size="14.00"> </text>
<polyline fill="none" stroke="black" points="1285.99,-249.5 1285.99,-285.5"/>
<text text-anchor="middle" x="1328.99" y="-263.8" font-family="Times New Roman,serif" font-size="14.00">data &#45;0.3443</text>
<polyline fill="none" stroke="black" points="1371.99,-249.5 1371.99,-285.5"/>
<text text-anchor="middle" x="1413.49" y="-263.8" font-family="Times New Roman,serif" font-size="14.00">grad 0.0000</text>
</g>
<!-- 2128284502096+ -->
<g id="node5" class="node">
<title>2128284502096+</title>
<ellipse fill="none" stroke="black" cx="1517.99" cy="-239.5" rx="27" ry="18"/>
<text text-anchor="middle" x="1517.99" y="-235.8" font-family="Times New Roman,serif" font-size="14.00">+</text>
</g>
<!-- 2128284502048&#45;&gt;2128284502096+ -->
<g id="edge18" class="edge">
<title>2128284502048&#45;&gt;2128284502096+</title>
<path fill="none" stroke="black" d="M1454.64,-250.73C1463.79,-249.08 1472.64,-247.49 1480.65,-246.04"/>
<polygon fill="black" stroke="black" points="1481.16,-249.33 1490.38,-244.11 1479.92,-242.44 1481.16,-249.33"/>
</g>
<!-- 2128284502048* -->
<g id="node3" class="node">
<title>2128284502048*</title>
<ellipse fill="none" stroke="black" cx="1202.99" cy="-267.5" rx="27" ry="18"/>
<text text-anchor="middle" x="1202.99" y="-263.8" font-family="Times New Roman,serif" font-size="14.00">*</text>
</g>
<!-- 2128284502048*&#45;&gt;2128284502048 -->
<g id="edge1" class="edge">
<title>2128284502048*&#45;&gt;2128284502048</title>
<path fill="none" stroke="black" d="M1230.37,-267.5C1237.78,-267.5 1246.32,-267.5 1255.4,-267.5"/>
<polygon fill="black" stroke="black" points="1255.28,-271 1265.28,-267.5 1255.28,-264 1255.28,-271"/>
</g>
<!-- 2128284502096 -->
<g id="node4" class="node">
<title>2128284502096</title>
<polygon fill="none" stroke="black" points="1580.99,-221.5 1580.99,-257.5 1764.99,-257.5 1764.99,-221.5 1580.99,-221.5"/>
<text text-anchor="middle" x="1590.99" y="-235.8" font-family="Times New Roman,serif" font-size="14.00"> </text>
<polyline fill="none" stroke="black" points="1600.99,-221.5 1600.99,-257.5"/>
<text text-anchor="middle" x="1641.49" y="-235.8" font-family="Times New Roman,serif" font-size="14.00">data 0.9557</text>
<polyline fill="none" stroke="black" points="1681.99,-221.5 1681.99,-257.5"/>
<text text-anchor="middle" x="1723.49" y="-235.8" font-family="Times New Roman,serif" font-size="14.00">grad 0.0000</text>
</g>
<!-- 2128284501808ReLU -->
<g id="node24" class="node">
<title>2128284501808ReLU</title>
<ellipse fill="none" stroke="black" cx="1833.49" cy="-239.5" rx="32.49" ry="18"/>
<text text-anchor="middle" x="1833.49" y="-235.8" font-family="Times New Roman,serif" font-size="14.00">ReLU</text>
</g>
<!-- 2128284502096&#45;&gt;2128284501808ReLU -->
<g id="edge29" class="edge">
<title>2128284502096&#45;&gt;2128284501808ReLU</title>
<path fill="none" stroke="black" d="M1764.81,-239.5C1773.56,-239.5 1782.11,-239.5 1790.03,-239.5"/>
<polygon fill="black" stroke="black" points="1789.77,-243 1799.77,-239.5 1789.77,-236 1789.77,-243"/>
</g>
<!-- 2128284502096+&#45;&gt;2128284502096 -->
<g id="edge2" class="edge">
<title>2128284502096+&#45;&gt;2128284502096</title>
<path fill="none" stroke="black" d="M1545.3,-239.5C1552.73,-239.5 1561.29,-239.5 1570.38,-239.5"/>
<polygon fill="black" stroke="black" points="1570.27,-243 1580.27,-239.5 1570.27,-236 1570.27,-243"/>
</g>
<!-- 2128284502144 -->
<g id="node6" class="node">
<title>2128284502144</title>
<polygon fill="none" stroke="black" points="2846.99,-110.5 2846.99,-146.5 3030.99,-146.5 3030.99,-110.5 2846.99,-110.5"/>
<text text-anchor="middle" x="2856.99" y="-124.8" font-family="Times New Roman,serif" font-size="14.00"> </text>
<polyline fill="none" stroke="black" points="2866.99,-110.5 2866.99,-146.5"/>
<text text-anchor="middle" x="2907.49" y="-124.8" font-family="Times New Roman,serif" font-size="14.00">data 3.3811</text>
<polyline fill="none" stroke="black" points="2947.99,-110.5 2947.99,-146.5"/>
<text text-anchor="middle" x="2989.49" y="-124.8" font-family="Times New Roman,serif" font-size="14.00">grad 0.0000</text>
</g>
<!-- 2128284502288* -->
<g id="node12" class="node">
<title>2128284502288*</title>
<ellipse fill="none" stroke="black" cx="3093.99" cy="-100.5" rx="27" ry="18"/>
<text text-anchor="middle" x="3093.99" y="-96.8" font-family="Times New Roman,serif" font-size="14.00">*</text>
</g>
<!-- 2128284502144&#45;&gt;2128284502288* -->
<g id="edge25" class="edge">
<title>2128284502144&#45;&gt;2128284502288*</title>
<path fill="none" stroke="black" d="M3030.76,-111.89C3039.94,-110.21 3048.84,-108.58 3056.9,-107.1"/>
<polygon fill="black" stroke="black" points="3057.47,-110.37 3066.68,-105.13 3056.21,-103.49 3057.47,-110.37"/>
</g>
<!-- 2128284502144+ -->
<g id="node7" class="node">
<title>2128284502144+</title>
<ellipse fill="none" stroke="black" cx="2783.99" cy="-128.5" rx="27" ry="18"/>
<text text-anchor="middle" x="2783.99" y="-124.8" font-family="Times New Roman,serif" font-size="14.00">+</text>
</g>
<!-- 2128284502144+&#45;&gt;2128284502144 -->
<g id="edge3" class="edge">
<title>2128284502144+&#45;&gt;2128284502144</title>
<path fill="none" stroke="black" d="M2811.29,-128.5C2818.72,-128.5 2827.28,-128.5 2836.38,-128.5"/>
<polygon fill="black" stroke="black" points="2836.26,-132 2846.26,-128.5 2836.26,-125 2836.26,-132"/>
</g>
<!-- 2128284502192 -->
<g id="node8" class="node">
<title>2128284502192</title>
<polygon fill="none" stroke="black" points="2531.99,-55.5 2531.99,-91.5 2720.99,-91.5 2720.99,-55.5 2531.99,-55.5"/>
<text text-anchor="middle" x="2541.99" y="-69.8" font-family="Times New Roman,serif" font-size="14.00"> </text>
<polyline fill="none" stroke="black" points="2551.99,-55.5 2551.99,-91.5"/>
<text text-anchor="middle" x="2594.99" y="-69.8" font-family="Times New Roman,serif" font-size="14.00">data &#45;1.0000</text>
<polyline fill="none" stroke="black" points="2637.99,-55.5 2637.99,-91.5"/>
<text text-anchor="middle" x="2679.49" y="-69.8" font-family="Times New Roman,serif" font-size="14.00">grad 0.0000</text>
</g>
<!-- 2128284502240**&#45;1 -->
<g id="node10" class="node">
<title>2128284502240**&#45;1</title>
<ellipse fill="none" stroke="black" cx="2783.99" cy="-73.5" rx="27" ry="18"/>
<text text-anchor="middle" x="2783.99" y="-69.8" font-family="Times New Roman,serif" font-size="14.00">**&#45;1</text>
</g>
<!-- 2128284502192&#45;&gt;2128284502240**&#45;1 -->
<g id="edge20" class="edge">
<title>2128284502192&#45;&gt;2128284502240**&#45;1</title>
<path fill="none" stroke="black" d="M2720.64,-73.5C2729.5,-73.5 2738.09,-73.5 2745.91,-73.5"/>
<polygon fill="black" stroke="black" points="2745.77,-77 2755.77,-73.5 2745.77,-70 2745.77,-77"/>
</g>
<!-- 2128284502240 -->
<g id="node9" class="node">
<title>2128284502240</title>
<polygon fill="none" stroke="black" points="2846.99,-55.5 2846.99,-91.5 3030.99,-91.5 3030.99,-55.5 2846.99,-55.5"/>
<text text-anchor="middle" x="2856.99" y="-69.8" font-family="Times New Roman,serif" font-size="14.00"> </text>
<polyline fill="none" stroke="black" points="2866.99,-55.5 2866.99,-91.5"/>
<text text-anchor="middle" x="2907.49" y="-69.8" font-family="Times New Roman,serif" font-size="14.00">data 1.0000</text>
<polyline fill="none" stroke="black" points="2947.99,-55.5 2947.99,-91.5"/>
<text text-anchor="middle" x="2989.49" y="-69.8" font-family="Times New Roman,serif" font-size="14.00">grad 0.0000</text>
</g>
<!-- 2128284502240&#45;&gt;2128284502288* -->
<g id="edge12" class="edge">
<title>2128284502240&#45;&gt;2128284502288*</title>
<path fill="none" stroke="black" d="M3030.76,-89.52C3039.85,-91.12 3048.67,-92.68 3056.67,-94.09"/>
<polygon fill="black" stroke="black" points="3055.92,-97.69 3066.38,-95.98 3057.14,-90.8 3055.92,-97.69"/>
</g>
<!-- 2128284502240**&#45;1&#45;&gt;2128284502240 -->
<g id="edge4" class="edge">
<title>2128284502240**&#45;1&#45;&gt;2128284502240</title>
<path fill="none" stroke="black" d="M2811.29,-73.5C2818.72,-73.5 2827.28,-73.5 2836.38,-73.5"/>
<polygon fill="black" stroke="black" points="2836.26,-77 2846.26,-73.5 2836.26,-70 2836.26,-77"/>
</g>
<!-- 2128284502288 -->
<g id="node11" class="node">
<title>2128284502288</title>
<polygon fill="none" stroke="black" points="3156.99,-82.5 3156.99,-118.5 3340.99,-118.5 3340.99,-82.5 3156.99,-82.5"/>
<text text-anchor="middle" x="3166.99" y="-96.8" font-family="Times New Roman,serif" font-size="14.00"> </text>
<polyline fill="none" stroke="black" points="3176.99,-82.5 3176.99,-118.5"/>
<text text-anchor="middle" x="3217.49" y="-96.8" font-family="Times New Roman,serif" font-size="14.00">data 3.3811</text>
<polyline fill="none" stroke="black" points="3257.99,-82.5 3257.99,-118.5"/>
<text text-anchor="middle" x="3299.49" y="-96.8" font-family="Times New Roman,serif" font-size="14.00">grad 0.0000</text>
</g>
<!-- 2128284502288*&#45;&gt;2128284502288 -->
<g id="edge5" class="edge">
<title>2128284502288*&#45;&gt;2128284502288</title>
<path fill="none" stroke="black" d="M3121.29,-100.5C3128.72,-100.5 3137.28,-100.5 3146.38,-100.5"/>
<polygon fill="black" stroke="black" points="3146.26,-104 3156.26,-100.5 3146.26,-97 3146.26,-104"/>
</g>
<!-- 2128284501280 -->
<g id="node13" class="node">
<title>2128284501280</title>
<polygon fill="none" stroke="black" points="950.99,-222.5 950.99,-258.5 1139.99,-258.5 1139.99,-222.5 950.99,-222.5"/>
<text text-anchor="middle" x="960.99" y="-236.8" font-family="Times New Roman,serif" font-size="14.00"> </text>
<polyline fill="none" stroke="black" points="970.99,-222.5 970.99,-258.5"/>
<text text-anchor="middle" x="1013.99" y="-236.8" font-family="Times New Roman,serif" font-size="14.00">data &#45;0.6826</text>
<polyline fill="none" stroke="black" points="1056.99,-222.5 1056.99,-258.5"/>
<text text-anchor="middle" x="1098.49" y="-236.8" font-family="Times New Roman,serif" font-size="14.00">grad 0.0000</text>
</g>
<!-- 2128284501280&#45;&gt;2128284502048* -->
<g id="edge15" class="edge">
<title>2128284501280&#45;&gt;2128284502048*</title>
<path fill="none" stroke="black" d="M1139.64,-256.67C1148.79,-258.26 1157.64,-259.8 1165.65,-261.19"/>
<polygon fill="black" stroke="black" points="1164.93,-264.79 1175.38,-263.05 1166.13,-257.89 1164.93,-264.79"/>
</g>
<!-- 2128284501472 -->
<g id="node14" class="node">
<title>2128284501472</title>
<polygon fill="none" stroke="black" points="1268.49,-194.5 1268.49,-230.5 1452.49,-230.5 1452.49,-194.5 1268.49,-194.5"/>
<text text-anchor="middle" x="1278.49" y="-208.8" font-family="Times New Roman,serif" font-size="14.00"> </text>
<polyline fill="none" stroke="black" points="1288.49,-194.5 1288.49,-230.5"/>
<text text-anchor="middle" x="1328.99" y="-208.8" font-family="Times New Roman,serif" font-size="14.00">data 1.3000</text>
<polyline fill="none" stroke="black" points="1369.49,-194.5 1369.49,-230.5"/>
<text text-anchor="middle" x="1410.99" y="-208.8" font-family="Times New Roman,serif" font-size="14.00">grad 0.0000</text>
</g>
<!-- 2128284501472&#45;&gt;2128284502096+ -->
<g id="edge27" class="edge">
<title>2128284501472&#45;&gt;2128284502096+</title>
<path fill="none" stroke="black" d="M1452.4,-228.28C1462.38,-230.02 1472.06,-231.7 1480.77,-233.21"/>
<polygon fill="black" stroke="black" points="1480.13,-236.83 1490.58,-235.09 1481.33,-229.93 1480.13,-236.83"/>
</g>
<!-- 2128284501520 -->
<g id="node15" class="node">
<title>2128284501520</title>
<polygon fill="none" stroke="black" points="2534.49,-110.5 2534.49,-146.5 2718.49,-146.5 2718.49,-110.5 2534.49,-110.5"/>
<text text-anchor="middle" x="2544.49" y="-124.8" font-family="Times New Roman,serif" font-size="14.00"> </text>
<polyline fill="none" stroke="black" points="2554.49,-110.5 2554.49,-146.5"/>
<text text-anchor="middle" x="2594.99" y="-124.8" font-family="Times New Roman,serif" font-size="14.00">data 0.0000</text>
<polyline fill="none" stroke="black" points="2635.49,-110.5 2635.49,-146.5"/>
<text text-anchor="middle" x="2676.99" y="-124.8" font-family="Times New Roman,serif" font-size="14.00">grad 0.0000</text>
</g>
<!-- 2128284501520&#45;&gt;2128284502144+ -->
<g id="edge21" class="edge">
<title>2128284501520&#45;&gt;2128284502144+</title>
<path fill="none" stroke="black" d="M2718.39,-128.5C2727.99,-128.5 2737.31,-128.5 2745.75,-128.5"/>
<polygon fill="black" stroke="black" points="2745.65,-132 2755.65,-128.5 2745.65,-125 2745.65,-132"/>
</g>
<!-- 2128284501568 -->
<g id="node16" class="node">
<title>2128284501568</title>
<polygon fill="none" stroke="black" points="2534.49,-0.5 2534.49,-36.5 2718.49,-36.5 2718.49,-0.5 2534.49,-0.5"/>
<text text-anchor="middle" x="2544.49" y="-14.8" font-family="Times New Roman,serif" font-size="14.00"> </text>
<polyline fill="none" stroke="black" points="2554.49,-0.5 2554.49,-36.5"/>
<text text-anchor="middle" x="2594.99" y="-14.8" font-family="Times New Roman,serif" font-size="14.00">data 1.0000</text>
<polyline fill="none" stroke="black" points="2635.49,-0.5 2635.49,-36.5"/>
<text text-anchor="middle" x="2676.99" y="-14.8" font-family="Times New Roman,serif" font-size="14.00">grad 0.0000</text>
</g>
<!-- 2128284501568&#45;&gt;2128284502240**&#45;1 -->
<g id="edge14" class="edge">
<title>2128284501568&#45;&gt;2128284502240**&#45;1</title>
<path fill="none" stroke="black" d="M2694.02,-36.44C2703.15,-39.27 2712.35,-42.32 2720.99,-45.5 2731.19,-49.25 2742.07,-53.93 2751.82,-58.37"/>
<polygon fill="black" stroke="black" points="2749.95,-61.83 2760.5,-62.88 2752.91,-55.49 2749.95,-61.83"/>
</g>
<!-- 2128284501616 -->
<g id="node17" class="node">
<title>2128284501616</title>
<polygon fill="none" stroke="black" points="1901.99,-166.5 1901.99,-202.5 2090.99,-202.5 2090.99,-166.5 1901.99,-166.5"/>
<text text-anchor="middle" x="1911.99" y="-180.8" font-family="Times New Roman,serif" font-size="14.00"> </text>
<polyline fill="none" stroke="black" points="1921.99,-166.5 1921.99,-202.5"/>
<text text-anchor="middle" x="1964.99" y="-180.8" font-family="Times New Roman,serif" font-size="14.00">data &#45;2.7945</text>
<polyline fill="none" stroke="black" points="2007.99,-166.5 2007.99,-202.5"/>
<text text-anchor="middle" x="2049.49" y="-180.8" font-family="Times New Roman,serif" font-size="14.00">grad 0.0000</text>
</g>
<!-- 2128284501664+ -->
<g id="node19" class="node">
<title>2128284501664+</title>
<ellipse fill="none" stroke="black" cx="2153.99" cy="-211.5" rx="27" ry="18"/>
<text text-anchor="middle" x="2153.99" y="-207.8" font-family="Times New Roman,serif" font-size="14.00">+</text>
</g>
<!-- 2128284501616&#45;&gt;2128284501664+ -->
<g id="edge22" class="edge">
<title>2128284501616&#45;&gt;2128284501664+</title>
<path fill="none" stroke="black" d="M2090.64,-200.67C2099.78,-202.26 2108.63,-203.8 2116.65,-205.19"/>
<polygon fill="black" stroke="black" points="2115.92,-208.79 2126.38,-207.05 2117.12,-201.89 2115.92,-208.79"/>
</g>
<!-- 2128284501664 -->
<g id="node18" class="node">
<title>2128284501664</title>
<polygon fill="none" stroke="black" points="2216.99,-193.5 2216.99,-229.5 2405.99,-229.5 2405.99,-193.5 2216.99,-193.5"/>
<text text-anchor="middle" x="2226.99" y="-207.8" font-family="Times New Roman,serif" font-size="14.00"> </text>
<polyline fill="none" stroke="black" points="2236.99,-193.5 2236.99,-229.5"/>
<text text-anchor="middle" x="2279.99" y="-207.8" font-family="Times New Roman,serif" font-size="14.00">data &#45;1.8388</text>
<polyline fill="none" stroke="black" points="2322.99,-193.5 2322.99,-229.5"/>
<text text-anchor="middle" x="2364.49" y="-207.8" font-family="Times New Roman,serif" font-size="14.00">grad 0.0000</text>
</g>
<!-- 2128284502000**2 -->
<g id="node32" class="node">
<title>2128284502000**2</title>
<ellipse fill="none" stroke="black" cx="2468.99" cy="-183.5" rx="27" ry="18"/>
<text text-anchor="middle" x="2468.99" y="-179.8" font-family="Times New Roman,serif" font-size="14.00">**2</text>
</g>
<!-- 2128284501664&#45;&gt;2128284502000**2 -->
<g id="edge17" class="edge">
<title>2128284501664&#45;&gt;2128284502000**2</title>
<path fill="none" stroke="black" d="M2405.64,-194.73C2414.78,-193.08 2423.63,-191.49 2431.65,-190.04"/>
<polygon fill="black" stroke="black" points="2432.15,-193.33 2441.38,-188.11 2430.91,-186.44 2432.15,-193.33"/>
</g>
<!-- 2128284501664+&#45;&gt;2128284501664 -->
<g id="edge6" class="edge">
<title>2128284501664+&#45;&gt;2128284501664</title>
<path fill="none" stroke="black" d="M2181.37,-211.5C2188.78,-211.5 2197.32,-211.5 2206.4,-211.5"/>
<polygon fill="black" stroke="black" points="2206.28,-215 2216.28,-211.5 2206.28,-208 2206.28,-215"/>
</g>
<!-- 2128284501712 -->
<g id="node20" class="node">
<title>2128284501712</title>
<polygon fill="none" stroke="black" points="2219.49,-138.5 2219.49,-174.5 2403.49,-174.5 2403.49,-138.5 2219.49,-138.5"/>
<text text-anchor="middle" x="2229.49" y="-152.8" font-family="Times New Roman,serif" font-size="14.00"> </text>
<polyline fill="none" stroke="black" points="2239.49,-138.5 2239.49,-174.5"/>
<text text-anchor="middle" x="2279.99" y="-152.8" font-family="Times New Roman,serif" font-size="14.00">data 2.0000</text>
<polyline fill="none" stroke="black" points="2320.49,-138.5 2320.49,-174.5"/>
<text text-anchor="middle" x="2361.99" y="-152.8" font-family="Times New Roman,serif" font-size="14.00">grad 0.0000</text>
</g>
<!-- 2128284501712&#45;&gt;2128284502000**2 -->
<g id="edge31" class="edge">
<title>2128284501712&#45;&gt;2128284502000**2</title>
<path fill="none" stroke="black" d="M2403.39,-172.28C2413.38,-174.02 2423.06,-175.7 2431.76,-177.21"/>
<polygon fill="black" stroke="black" points="2431.13,-180.83 2441.58,-179.09 2432.32,-173.93 2431.13,-180.83"/>
</g>
<!-- 2128284501760 -->
<g id="node21" class="node">
<title>2128284501760</title>
<polygon fill="none" stroke="black" points="953.49,-277.5 953.49,-313.5 1137.49,-313.5 1137.49,-277.5 953.49,-277.5"/>
<text text-anchor="middle" x="963.49" y="-291.8" font-family="Times New Roman,serif" font-size="14.00"> </text>
<polyline fill="none" stroke="black" points="973.49,-277.5 973.49,-313.5"/>
<text text-anchor="middle" x="1013.99" y="-291.8" font-family="Times New Roman,serif" font-size="14.00">data 0.5044</text>
<polyline fill="none" stroke="black" points="1054.49,-277.5 1054.49,-313.5"/>
<text text-anchor="middle" x="1095.99" y="-291.8" font-family="Times New Roman,serif" font-size="14.00">grad 0.0000</text>
</g>
<!-- 2128284501760&#45;&gt;2128284502048* -->
<g id="edge23" class="edge">
<title>2128284501760&#45;&gt;2128284502048*</title>
<path fill="none" stroke="black" d="M1137.4,-279.13C1147.38,-277.33 1157.06,-275.59 1165.77,-274.02"/>
<polygon fill="black" stroke="black" points="1166.36,-277.29 1175.58,-272.08 1165.12,-270.4 1166.36,-277.29"/>
</g>
<!-- 2128284501760ReLU -->
<g id="node22" class="node">
<title>2128284501760ReLU</title>
<ellipse fill="none" stroke="black" cx="882.5" cy="-295.5" rx="32.49" ry="18"/>
<text text-anchor="middle" x="882.5" y="-291.8" font-family="Times New Roman,serif" font-size="14.00">ReLU</text>
</g>
<!-- 2128284501760ReLU&#45;&gt;2128284501760 -->
<g id="edge7" class="edge">
<title>2128284501760ReLU&#45;&gt;2128284501760</title>
<path fill="none" stroke="black" d="M915.3,-295.5C923.58,-295.5 932.96,-295.5 942.79,-295.5"/>
<polygon fill="black" stroke="black" points="942.61,-299 952.61,-295.5 942.61,-292 942.61,-299"/>
</g>
<!-- 2128284501808 -->
<g id="node23" class="node">
<title>2128284501808</title>
<polygon fill="none" stroke="black" points="1904.49,-221.5 1904.49,-257.5 2088.49,-257.5 2088.49,-221.5 1904.49,-221.5"/>
<text text-anchor="middle" x="1914.49" y="-235.8" font-family="Times New Roman,serif" font-size="14.00"> </text>
<polyline fill="none" stroke="black" points="1924.49,-221.5 1924.49,-257.5"/>
<text text-anchor="middle" x="1964.99" y="-235.8" font-family="Times New Roman,serif" font-size="14.00">data 0.9557</text>
<polyline fill="none" stroke="black" points="2005.49,-221.5 2005.49,-257.5"/>
<text text-anchor="middle" x="2046.99" y="-235.8" font-family="Times New Roman,serif" font-size="14.00">grad 0.0000</text>
</g>
<!-- 2128284501808&#45;&gt;2128284501664+ -->
<g id="edge16" class="edge">
<title>2128284501808&#45;&gt;2128284501664+</title>
<path fill="none" stroke="black" d="M2088.39,-223.13C2098.38,-221.33 2108.06,-219.59 2116.76,-218.02"/>
<polygon fill="black" stroke="black" points="2117.36,-221.29 2126.58,-216.08 2116.12,-214.4 2117.36,-221.29"/>
</g>
<!-- 2128284501808ReLU&#45;&gt;2128284501808 -->
<g id="edge8" class="edge">
<title>2128284501808ReLU&#45;&gt;2128284501808</title>
<path fill="none" stroke="black" d="M1866.3,-239.5C1874.58,-239.5 1883.95,-239.5 1893.79,-239.5"/>
<polygon fill="black" stroke="black" points="1893.6,-243 1903.6,-239.5 1893.6,-236 1893.6,-243"/>
</g>
<!-- 2128284501856 -->
<g id="node25" class="node">
<title>2128284501856</title>
<polygon fill="none" stroke="black" points="2.5,-278.5 2.5,-314.5 186.5,-314.5 186.5,-278.5 2.5,-278.5"/>
<text text-anchor="middle" x="12.5" y="-292.8" font-family="Times New Roman,serif" font-size="14.00"> </text>
<polyline fill="none" stroke="black" points="22.5,-278.5 22.5,-314.5"/>
<text text-anchor="middle" x="63" y="-292.8" font-family="Times New Roman,serif" font-size="14.00">data 1.6717</text>
<polyline fill="none" stroke="black" points="103.5,-278.5 103.5,-314.5"/>
<text text-anchor="middle" x="145" y="-292.8" font-family="Times New Roman,serif" font-size="14.00">grad 0.0000</text>
</g>
<!-- 2128284501904* -->
<g id="node28" class="node">
<title>2128284501904*</title>
<ellipse fill="none" stroke="black" cx="252" cy="-268.5" rx="27" ry="18"/>
<text text-anchor="middle" x="252" y="-264.8" font-family="Times New Roman,serif" font-size="14.00">*</text>
</g>
<!-- 2128284501856&#45;&gt;2128284501904* -->
<g id="edge26" class="edge">
<title>2128284501856&#45;&gt;2128284501904*</title>
<path fill="none" stroke="black" d="M186.4,-280.13C196.39,-278.33 206.07,-276.59 214.77,-275.02"/>
<polygon fill="black" stroke="black" points="215.37,-278.29 224.59,-273.08 214.13,-271.4 215.37,-278.29"/>
</g>
<!-- 2128283871088 -->
<g id="node26" class="node">
<title>2128283871088</title>
<polygon fill="none" stroke="black" points="0,-223.5 0,-259.5 189,-259.5 189,-223.5 0,-223.5"/>
<text text-anchor="middle" x="10" y="-237.8" font-family="Times New Roman,serif" font-size="14.00"> </text>
<polyline fill="none" stroke="black" points="20,-223.5 20,-259.5"/>
<text text-anchor="middle" x="63" y="-237.8" font-family="Times New Roman,serif" font-size="14.00">data &#45;0.4760</text>
<polyline fill="none" stroke="black" points="106,-223.5 106,-259.5"/>
<text text-anchor="middle" x="147.5" y="-237.8" font-family="Times New Roman,serif" font-size="14.00">grad 0.0000</text>
</g>
<!-- 2128283871088&#45;&gt;2128284501904* -->
<g id="edge30" class="edge">
<title>2128283871088&#45;&gt;2128284501904*</title>
<path fill="none" stroke="black" d="M188.65,-257.67C197.79,-259.26 206.64,-260.8 214.66,-262.19"/>
<polygon fill="black" stroke="black" points="213.94,-265.79 224.39,-264.05 215.13,-258.89 213.94,-265.79"/>
</g>
<!-- 2128284501904 -->
<g id="node27" class="node">
<title>2128284501904</title>
<polygon fill="none" stroke="black" points="315,-250.5 315,-286.5 504,-286.5 504,-250.5 315,-250.5"/>
<text text-anchor="middle" x="325" y="-264.8" font-family="Times New Roman,serif" font-size="14.00"> </text>
<polyline fill="none" stroke="black" points="335,-250.5 335,-286.5"/>
<text text-anchor="middle" x="378" y="-264.8" font-family="Times New Roman,serif" font-size="14.00">data &#45;0.7956</text>
<polyline fill="none" stroke="black" points="421,-250.5 421,-286.5"/>
<text text-anchor="middle" x="462.5" y="-264.8" font-family="Times New Roman,serif" font-size="14.00">grad 0.0000</text>
</g>
<!-- 2128284501904&#45;&gt;2128284501952+ -->
<g id="edge19" class="edge">
<title>2128284501904&#45;&gt;2128284501952+</title>
<path fill="none" stroke="black" d="M503.65,-284.67C512.79,-286.26 521.64,-287.8 529.66,-289.19"/>
<polygon fill="black" stroke="black" points="528.94,-292.79 539.39,-291.05 530.13,-285.89 528.94,-292.79"/>
</g>
<!-- 2128284501904*&#45;&gt;2128284501904 -->
<g id="edge9" class="edge">
<title>2128284501904*&#45;&gt;2128284501904</title>
<path fill="none" stroke="black" d="M279.38,-268.5C286.79,-268.5 295.33,-268.5 304.41,-268.5"/>
<polygon fill="black" stroke="black" points="304.29,-272 314.29,-268.5 304.29,-265 304.29,-272"/>
</g>
<!-- 2128284501952 -->
<g id="node29" class="node">
<title>2128284501952</title>
<polygon fill="none" stroke="black" points="630,-277.5 630,-313.5 814,-313.5 814,-277.5 630,-277.5"/>
<text text-anchor="middle" x="640" y="-291.8" font-family="Times New Roman,serif" font-size="14.00"> </text>
<polyline fill="none" stroke="black" points="650,-277.5 650,-313.5"/>
<text text-anchor="middle" x="690.5" y="-291.8" font-family="Times New Roman,serif" font-size="14.00">data 0.5044</text>
<polyline fill="none" stroke="black" points="731,-277.5 731,-313.5"/>
<text text-anchor="middle" x="772.5" y="-291.8" font-family="Times New Roman,serif" font-size="14.00">grad 0.0000</text>
</g>
<!-- 2128284501952&#45;&gt;2128284501760ReLU -->
<g id="edge13" class="edge">
<title>2128284501952&#45;&gt;2128284501760ReLU</title>
<path fill="none" stroke="black" d="M813.82,-295.5C822.56,-295.5 831.12,-295.5 839.04,-295.5"/>
<polygon fill="black" stroke="black" points="838.77,-299 848.77,-295.5 838.77,-292 838.77,-299"/>
</g>
<!-- 2128284501952+&#45;&gt;2128284501952 -->
<g id="edge10" class="edge">
<title>2128284501952+&#45;&gt;2128284501952</title>
<path fill="none" stroke="black" d="M594.3,-295.5C601.73,-295.5 610.29,-295.5 619.39,-295.5"/>
<polygon fill="black" stroke="black" points="619.27,-299 629.27,-295.5 619.27,-292 619.27,-299"/>
</g>
<!-- 2128284502000 -->
<g id="node31" class="node">
<title>2128284502000</title>
<polygon fill="none" stroke="black" points="2534.49,-165.5 2534.49,-201.5 2718.49,-201.5 2718.49,-165.5 2534.49,-165.5"/>
<text text-anchor="middle" x="2544.49" y="-179.8" font-family="Times New Roman,serif" font-size="14.00"> </text>
<polyline fill="none" stroke="black" points="2554.49,-165.5 2554.49,-201.5"/>
<text text-anchor="middle" x="2594.99" y="-179.8" font-family="Times New Roman,serif" font-size="14.00">data 3.3811</text>
<polyline fill="none" stroke="black" points="2635.49,-165.5 2635.49,-201.5"/>
<text text-anchor="middle" x="2676.99" y="-179.8" font-family="Times New Roman,serif" font-size="14.00">grad 0.0000</text>
</g>
<!-- 2128284502000&#45;&gt;2128284502144+ -->
<g id="edge28" class="edge">
<title>2128284502000&#45;&gt;2128284502144+</title>
<path fill="none" stroke="black" d="M2691.2,-165.54C2701.23,-162.39 2711.44,-158.99 2720.99,-155.5 2730.95,-151.86 2741.6,-147.42 2751.21,-143.21"/>
<polygon fill="black" stroke="black" points="2752.45,-146.04 2760.15,-138.77 2749.6,-139.65 2752.45,-146.04"/>
</g>
<!-- 2128284502000**2&#45;&gt;2128284502000 -->
<g id="edge11" class="edge">
<title>2128284502000**2&#45;&gt;2128284502000</title>
<path fill="none" stroke="black" d="M2496.37,-183.5C2504.38,-183.5 2513.72,-183.5 2523.64,-183.5"/>
<polygon fill="black" stroke="black" points="2523.59,-187 2533.59,-183.5 2523.59,-180 2523.59,-187"/>
</g>
</g>
</svg>
