<?xml version="1.0" encoding="UTF-8" standalone="no"?>
<!DOCTYPE svg PUBLIC "-//W3C//DTD SVG 1.1//EN"
 "http://www.w3.org/Graphics/SVG/1.1/DTD/svg11.dtd">
<!-- Generated by graphviz version 8.0.5 (20230430.1635)
 -->
<!-- Pages: 1 -->
<svg width="3484pt" height="296pt"
 viewBox="0.00 0.00 3484.38 296.00" xmlns="http://www.w3.org/2000/svg" xmlns:xlink="http://www.w3.org/1999/xlink">
<g id="graph0" class="graph" transform="scale(1 1) rotate(0) translate(4 292)">
<polygon fill="white" stroke="none" points="-4,4 -4,-292 3480.38,-292 3480.38,4 -4,4"/>
<!-- 140525177171984 -->
<g id="node1" class="node">
<title>140525177171984</title>
<polygon fill="none" stroke="black" points="0,-251.5 0,-287.5 199.5,-287.5 199.5,-251.5 0,-251.5"/>
<text text-anchor="middle" x="19.25" y="-264.7" font-family="Times,serif" font-size="14.00">data</text>
<polyline fill="none" stroke="black" points="38.5,-252 38.5,-287.5"/>
<text text-anchor="middle" x="78.38" y="-264.7" font-family="Times,serif" font-size="14.00">data 1.5115</text>
<polyline fill="none" stroke="black" points="118.25,-252 118.25,-287.5"/>
<text text-anchor="middle" x="158.88" y="-264.7" font-family="Times,serif" font-size="14.00">grad 0.0000</text>
</g>
<!-- 140525177171696* -->
<g id="node25" class="node">
<title>140525177171696*</title>
<ellipse fill="none" stroke="black" cx="262.5" cy="-241.5" rx="27" ry="18"/>
<text text-anchor="middle" x="262.5" y="-236.45" font-family="Times,serif" font-size="14.00">*</text>
</g>
<!-- 140525177171984&#45;&gt;140525177171696* -->
<g id="edge15" class="edge">
<title>140525177171984&#45;&gt;140525177171696*</title>
<path fill="none" stroke="black" d="M199.35,-252.33C208.54,-250.73 217.39,-249.18 225.39,-247.79"/>
<polygon fill="black" stroke="black" points="225.83,-251.09 235.08,-245.93 224.63,-244.2 225.83,-251.09"/>
</g>
<!-- 140525177174048 -->
<g id="node2" class="node">
<title>140525177174048</title>
<polygon fill="none" stroke="black" points="2951.38,-0.5 2951.38,-36.5 3150.88,-36.5 3150.88,-0.5 2951.38,-0.5"/>
<text text-anchor="middle" x="2970.63" y="-13.7" font-family="Times,serif" font-size="14.00">data</text>
<polyline fill="none" stroke="black" points="2989.88,-1 2989.88,-36.5"/>
<text text-anchor="middle" x="3029.75" y="-13.7" font-family="Times,serif" font-size="14.00">data 1.0000</text>
<polyline fill="none" stroke="black" points="3069.63,-1 3069.63,-36.5"/>
<text text-anchor="middle" x="3110.25" y="-13.7" font-family="Times,serif" font-size="14.00">grad 0.0000</text>
</g>
<!-- 140525177174096* -->
<g id="node4" class="node">
<title>140525177174096*</title>
<ellipse fill="none" stroke="black" cx="3213.88" cy="-45.5" rx="27" ry="18"/>
<text text-anchor="middle" x="3213.88" y="-40.45" font-family="Times,serif" font-size="14.00">*</text>
</g>
<!-- 140525177174048&#45;&gt;140525177174096* -->
<g id="edge23" class="edge">
<title>140525177174048&#45;&gt;140525177174096*</title>
<path fill="none" stroke="black" d="M3150.73,-35.06C3159.83,-36.59 3168.6,-38.06 3176.54,-39.4"/>
<polygon fill="black" stroke="black" points="3175.72,-42.98 3186.16,-41.18 3176.88,-36.07 3175.72,-42.98"/>
</g>
<!-- 140525177174096 -->
<g id="node3" class="node">
<title>140525177174096</title>
<polygon fill="none" stroke="black" points="3276.88,-27.5 3276.88,-63.5 3476.38,-63.5 3476.38,-27.5 3276.88,-27.5"/>
<text text-anchor="middle" x="3296.13" y="-40.7" font-family="Times,serif" font-size="14.00">data</text>
<polyline fill="none" stroke="black" points="3315.38,-28 3315.38,-63.5"/>
<text text-anchor="middle" x="3355.25" y="-40.7" font-family="Times,serif" font-size="14.00">data 5.1120</text>
<polyline fill="none" stroke="black" points="3395.13,-28 3395.13,-63.5"/>
<text text-anchor="middle" x="3435.75" y="-40.7" font-family="Times,serif" font-size="14.00">grad 0.0000</text>
</g>
<!-- 140525177174096*&#45;&gt;140525177174096 -->
<g id="edge1" class="edge">
<title>140525177174096*&#45;&gt;140525177174096</title>
<path fill="none" stroke="black" d="M3241.06,-45.5C3248.48,-45.5 3257.05,-45.5 3266.2,-45.5"/>
<polygon fill="black" stroke="black" points="3266.17,-49 3276.17,-45.5 3266.17,-42 3266.17,-49"/>
</g>
<!-- 140525177172272 -->
<g id="node5" class="node">
<title>140525177172272</title>
<polygon fill="none" stroke="black" points="989.38,-140.5 989.38,-176.5 1188.88,-176.5 1188.88,-140.5 989.38,-140.5"/>
<text text-anchor="middle" x="1008.63" y="-153.7" font-family="Times,serif" font-size="14.00">data</text>
<polyline fill="none" stroke="black" points="1027.88,-141 1027.88,-176.5"/>
<text text-anchor="middle" x="1067.75" y="-153.7" font-family="Times,serif" font-size="14.00">data 0.0665</text>
<polyline fill="none" stroke="black" points="1107.63,-141 1107.63,-176.5"/>
<text text-anchor="middle" x="1148.25" y="-153.7" font-family="Times,serif" font-size="14.00">grad 0.0000</text>
</g>
<!-- 140525177173088* -->
<g id="node15" class="node">
<title>140525177173088*</title>
<ellipse fill="none" stroke="black" cx="1251.88" cy="-185.5" rx="27" ry="18"/>
<text text-anchor="middle" x="1251.88" y="-180.45" font-family="Times,serif" font-size="14.00">*</text>
</g>
<!-- 140525177172272&#45;&gt;140525177173088* -->
<g id="edge12" class="edge">
<title>140525177172272&#45;&gt;140525177173088*</title>
<path fill="none" stroke="black" d="M1188.73,-175.06C1197.83,-176.59 1206.6,-178.06 1214.54,-179.4"/>
<polygon fill="black" stroke="black" points="1213.72,-182.98 1224.16,-181.18 1214.88,-176.07 1213.72,-182.98"/>
</g>
<!-- 140525177172560 -->
<g id="node6" class="node">
<title>140525177172560</title>
<polygon fill="none" stroke="black" points="1314.88,-112.5 1314.88,-148.5 1514.38,-148.5 1514.38,-112.5 1314.88,-112.5"/>
<text text-anchor="middle" x="1334.13" y="-125.7" font-family="Times,serif" font-size="14.00">data</text>
<polyline fill="none" stroke="black" points="1353.38,-113 1353.38,-148.5"/>
<text text-anchor="middle" x="1393.25" y="-125.7" font-family="Times,serif" font-size="14.00">data 0.0000</text>
<polyline fill="none" stroke="black" points="1433.13,-113 1433.13,-148.5"/>
<text text-anchor="middle" x="1473.75" y="-125.7" font-family="Times,serif" font-size="14.00">grad 0.0000</text>
</g>
<!-- 140525177173280+ -->
<g id="node17" class="node">
<title>140525177173280+</title>
<ellipse fill="none" stroke="black" cx="1577.38" cy="-157.5" rx="27" ry="18"/>
<text text-anchor="middle" x="1577.38" y="-152.45" font-family="Times,serif" font-size="14.00">+</text>
</g>
<!-- 140525177172560&#45;&gt;140525177173280+ -->
<g id="edge28" class="edge">
<title>140525177172560&#45;&gt;140525177173280+</title>
<path fill="none" stroke="black" d="M1514.23,-147.06C1523.33,-148.59 1532.1,-150.06 1540.04,-151.4"/>
<polygon fill="black" stroke="black" points="1539.22,-154.98 1549.66,-153.18 1540.38,-148.07 1539.22,-154.98"/>
</g>
<!-- 140525177172752 -->
<g id="node7" class="node">
<title>140525177172752</title>
<polygon fill="none" stroke="black" points="651,-195.5 651,-231.5 850.5,-231.5 850.5,-195.5 651,-195.5"/>
<text text-anchor="middle" x="670.25" y="-208.7" font-family="Times,serif" font-size="14.00">data</text>
<polyline fill="none" stroke="black" points="689.5,-196 689.5,-231.5"/>
<text text-anchor="middle" x="729.38" y="-208.7" font-family="Times,serif" font-size="14.00">data 0.3560</text>
<polyline fill="none" stroke="black" points="769.25,-196 769.25,-231.5"/>
<text text-anchor="middle" x="809.88" y="-208.7" font-family="Times,serif" font-size="14.00">grad 0.0000</text>
</g>
<!-- 140525177172800ReLU -->
<g id="node10" class="node">
<title>140525177172800ReLU</title>
<ellipse fill="none" stroke="black" cx="919.94" cy="-213.5" rx="33.44" ry="18"/>
<text text-anchor="middle" x="919.94" y="-208.45" font-family="Times,serif" font-size="14.00">ReLU</text>
</g>
<!-- 140525177172752&#45;&gt;140525177172800ReLU -->
<g id="edge18" class="edge">
<title>140525177172752&#45;&gt;140525177172800ReLU</title>
<path fill="none" stroke="black" d="M850.45,-213.5C859.1,-213.5 867.52,-213.5 875.33,-213.5"/>
<polygon fill="black" stroke="black" points="875.3,-217 885.3,-213.5 875.3,-210 875.3,-217"/>
</g>
<!-- 140525177172752+ -->
<g id="node8" class="node">
<title>140525177172752+</title>
<ellipse fill="none" stroke="black" cx="588" cy="-213.5" rx="27" ry="18"/>
<text text-anchor="middle" x="588" y="-208.45" font-family="Times,serif" font-size="14.00">+</text>
</g>
<!-- 140525177172752+&#45;&gt;140525177172752 -->
<g id="edge2" class="edge">
<title>140525177172752+&#45;&gt;140525177172752</title>
<path fill="none" stroke="black" d="M615.19,-213.5C622.6,-213.5 631.17,-213.5 640.32,-213.5"/>
<polygon fill="black" stroke="black" points="640.3,-217 650.3,-213.5 640.3,-210 640.3,-217"/>
</g>
<!-- 140525177172800 -->
<g id="node9" class="node">
<title>140525177172800</title>
<polygon fill="none" stroke="black" points="989.38,-195.5 989.38,-231.5 1188.88,-231.5 1188.88,-195.5 989.38,-195.5"/>
<text text-anchor="middle" x="1008.63" y="-208.7" font-family="Times,serif" font-size="14.00">data</text>
<polyline fill="none" stroke="black" points="1027.88,-196 1027.88,-231.5"/>
<text text-anchor="middle" x="1067.75" y="-208.7" font-family="Times,serif" font-size="14.00">data 0.3560</text>
<polyline fill="none" stroke="black" points="1107.63,-196 1107.63,-231.5"/>
<text text-anchor="middle" x="1148.25" y="-208.7" font-family="Times,serif" font-size="14.00">grad 0.0000</text>
</g>
<!-- 140525177172800&#45;&gt;140525177173088* -->
<g id="edge13" class="edge">
<title>140525177172800&#45;&gt;140525177173088*</title>
<path fill="none" stroke="black" d="M1188.73,-196.33C1197.91,-194.73 1206.77,-193.18 1214.77,-191.79"/>
<polygon fill="black" stroke="black" points="1215.21,-195.09 1224.46,-189.93 1214.01,-188.2 1215.21,-195.09"/>
</g>
<!-- 140525177172800ReLU&#45;&gt;140525177172800 -->
<g id="edge3" class="edge">
<title>140525177172800ReLU&#45;&gt;140525177172800</title>
<path fill="none" stroke="black" d="M953.57,-213.5C961.22,-213.5 969.79,-213.5 978.8,-213.5"/>
<polygon fill="black" stroke="black" points="978.56,-217 988.56,-213.5 978.56,-210 978.56,-217"/>
</g>
<!-- 140525177172848 -->
<g id="node11" class="node">
<title>140525177172848</title>
<polygon fill="none" stroke="black" points="1640.38,-84.5 1640.38,-120.5 1844.38,-120.5 1844.38,-84.5 1640.38,-84.5"/>
<text text-anchor="middle" x="1659.63" y="-97.7" font-family="Times,serif" font-size="14.00">data</text>
<polyline fill="none" stroke="black" points="1678.88,-85 1678.88,-120.5"/>
<text text-anchor="middle" x="1721" y="-97.7" font-family="Times,serif" font-size="14.00">data &#45;1.0000</text>
<polyline fill="none" stroke="black" points="1763.13,-85 1763.13,-120.5"/>
<text text-anchor="middle" x="1803.75" y="-97.7" font-family="Times,serif" font-size="14.00">grad 0.0000</text>
</g>
<!-- 140525177172896* -->
<g id="node13" class="node">
<title>140525177172896*</title>
<ellipse fill="none" stroke="black" cx="1907.38" cy="-129.5" rx="27" ry="18"/>
<text text-anchor="middle" x="1907.38" y="-124.45" font-family="Times,serif" font-size="14.00">*</text>
</g>
<!-- 140525177172848&#45;&gt;140525177172896* -->
<g id="edge25" class="edge">
<title>140525177172848&#45;&gt;140525177172896*</title>
<path fill="none" stroke="black" d="M1844.29,-119.22C1853.41,-120.73 1862.18,-122.18 1870.12,-123.49"/>
<polygon fill="black" stroke="black" points="1869.29,-127.07 1879.73,-125.25 1870.44,-120.16 1869.29,-127.07"/>
</g>
<!-- 140525177172896 -->
<g id="node12" class="node">
<title>140525177172896</title>
<polygon fill="none" stroke="black" points="1970.38,-111.5 1970.38,-147.5 2174.38,-147.5 2174.38,-111.5 1970.38,-111.5"/>
<text text-anchor="middle" x="1989.63" y="-124.7" font-family="Times,serif" font-size="14.00">data</text>
<polyline fill="none" stroke="black" points="2008.88,-112 2008.88,-147.5"/>
<text text-anchor="middle" x="2051" y="-124.7" font-family="Times,serif" font-size="14.00">data &#45;0.0237</text>
<polyline fill="none" stroke="black" points="2093.13,-112 2093.13,-147.5"/>
<text text-anchor="middle" x="2133.75" y="-124.7" font-family="Times,serif" font-size="14.00">grad 0.0000</text>
</g>
<!-- 140525177173520+ -->
<g id="node21" class="node">
<title>140525177173520+</title>
<ellipse fill="none" stroke="black" cx="2237.38" cy="-101.5" rx="27" ry="18"/>
<text text-anchor="middle" x="2237.38" y="-96.45" font-family="Times,serif" font-size="14.00">+</text>
</g>
<!-- 140525177172896&#45;&gt;140525177173520+ -->
<g id="edge14" class="edge">
<title>140525177172896&#45;&gt;140525177173520+</title>
<path fill="none" stroke="black" d="M2174.29,-112.17C2183.41,-110.6 2192.18,-109.09 2200.12,-107.73"/>
<polygon fill="black" stroke="black" points="2200.47,-111.05 2209.73,-105.91 2199.28,-104.15 2200.47,-111.05"/>
</g>
<!-- 140525177172896*&#45;&gt;140525177172896 -->
<g id="edge4" class="edge">
<title>140525177172896*&#45;&gt;140525177172896</title>
<path fill="none" stroke="black" d="M1934.57,-129.5C1941.94,-129.5 1950.46,-129.5 1959.56,-129.5"/>
<polygon fill="black" stroke="black" points="1959.49,-133 1969.49,-129.5 1959.49,-126 1959.49,-133"/>
</g>
<!-- 140525177173088 -->
<g id="node14" class="node">
<title>140525177173088</title>
<polygon fill="none" stroke="black" points="1314.88,-167.5 1314.88,-203.5 1514.38,-203.5 1514.38,-167.5 1314.88,-167.5"/>
<text text-anchor="middle" x="1334.13" y="-180.7" font-family="Times,serif" font-size="14.00">data</text>
<polyline fill="none" stroke="black" points="1353.38,-168 1353.38,-203.5"/>
<text text-anchor="middle" x="1393.25" y="-180.7" font-family="Times,serif" font-size="14.00">data 0.0237</text>
<polyline fill="none" stroke="black" points="1433.13,-168 1433.13,-203.5"/>
<text text-anchor="middle" x="1473.75" y="-180.7" font-family="Times,serif" font-size="14.00">grad 0.0000</text>
</g>
<!-- 140525177173088&#45;&gt;140525177173280+ -->
<g id="edge11" class="edge">
<title>140525177173088&#45;&gt;140525177173280+</title>
<path fill="none" stroke="black" d="M1514.23,-168.33C1523.41,-166.73 1532.27,-165.18 1540.27,-163.79"/>
<polygon fill="black" stroke="black" points="1540.71,-167.09 1549.96,-161.93 1539.51,-160.2 1540.71,-167.09"/>
</g>
<!-- 140525177173088*&#45;&gt;140525177173088 -->
<g id="edge5" class="edge">
<title>140525177173088*&#45;&gt;140525177173088</title>
<path fill="none" stroke="black" d="M1279.06,-185.5C1286.48,-185.5 1295.05,-185.5 1304.2,-185.5"/>
<polygon fill="black" stroke="black" points="1304.17,-189 1314.17,-185.5 1304.17,-182 1304.17,-189"/>
</g>
<!-- 140525177173280 -->
<g id="node16" class="node">
<title>140525177173280</title>
<polygon fill="none" stroke="black" points="1642.63,-139.5 1642.63,-175.5 1842.13,-175.5 1842.13,-139.5 1642.63,-139.5"/>
<text text-anchor="middle" x="1661.88" y="-152.7" font-family="Times,serif" font-size="14.00">data</text>
<polyline fill="none" stroke="black" points="1681.13,-140 1681.13,-175.5"/>
<text text-anchor="middle" x="1721" y="-152.7" font-family="Times,serif" font-size="14.00">data 0.0237</text>
<polyline fill="none" stroke="black" points="1760.88,-140 1760.88,-175.5"/>
<text text-anchor="middle" x="1801.5" y="-152.7" font-family="Times,serif" font-size="14.00">grad 0.0000</text>
</g>
<!-- 140525177173280&#45;&gt;140525177172896* -->
<g id="edge24" class="edge">
<title>140525177173280&#45;&gt;140525177172896*</title>
<path fill="none" stroke="black" d="M1841.95,-140.57C1851.93,-138.85 1861.55,-137.2 1870.18,-135.72"/>
<polygon fill="black" stroke="black" points="1870.63,-139.02 1879.89,-133.88 1869.44,-132.12 1870.63,-139.02"/>
</g>
<!-- 140525177173280+&#45;&gt;140525177173280 -->
<g id="edge6" class="edge">
<title>140525177173280+&#45;&gt;140525177173280</title>
<path fill="none" stroke="black" d="M1604.57,-157.5C1612.65,-157.5 1622.1,-157.5 1632.2,-157.5"/>
<polygon fill="black" stroke="black" points="1631.93,-161 1641.93,-157.5 1631.93,-154 1631.93,-161"/>
</g>
<!-- 140525177173472 -->
<g id="node18" class="node">
<title>140525177173472</title>
<polygon fill="none" stroke="black" points="1972.63,-56.5 1972.63,-92.5 2172.13,-92.5 2172.13,-56.5 1972.63,-56.5"/>
<text text-anchor="middle" x="1991.88" y="-69.7" font-family="Times,serif" font-size="14.00">data</text>
<polyline fill="none" stroke="black" points="2011.13,-57 2011.13,-92.5"/>
<text text-anchor="middle" x="2051" y="-69.7" font-family="Times,serif" font-size="14.00">data 2.2847</text>
<polyline fill="none" stroke="black" points="2090.88,-57 2090.88,-92.5"/>
<text text-anchor="middle" x="2131.5" y="-69.7" font-family="Times,serif" font-size="14.00">grad 0.0000</text>
</g>
<!-- 140525177173472&#45;&gt;140525177173520+ -->
<g id="edge22" class="edge">
<title>140525177173472&#45;&gt;140525177173520+</title>
<path fill="none" stroke="black" d="M2171.95,-90.83C2181.93,-92.48 2191.55,-94.07 2200.18,-95.5"/>
<polygon fill="black" stroke="black" points="2199.45,-99.1 2209.89,-97.28 2200.6,-92.19 2199.45,-99.1"/>
</g>
<!-- 140525177171456 -->
<g id="node19" class="node">
<title>140525177171456</title>
<polygon fill="none" stroke="black" points="0,-196.5 0,-232.5 199.5,-232.5 199.5,-196.5 0,-196.5"/>
<text text-anchor="middle" x="19.25" y="-209.7" font-family="Times,serif" font-size="14.00">data</text>
<polyline fill="none" stroke="black" points="38.5,-197 38.5,-232.5"/>
<text text-anchor="middle" x="78.38" y="-209.7" font-family="Times,serif" font-size="14.00">data 0.2355</text>
<polyline fill="none" stroke="black" points="118.25,-197 118.25,-232.5"/>
<text text-anchor="middle" x="158.88" y="-209.7" font-family="Times,serif" font-size="14.00">grad 0.0000</text>
</g>
<!-- 140525177171456&#45;&gt;140525177171696* -->
<g id="edge27" class="edge">
<title>140525177171456&#45;&gt;140525177171696*</title>
<path fill="none" stroke="black" d="M199.35,-231.06C208.45,-232.59 217.22,-234.06 225.16,-235.4"/>
<polygon fill="black" stroke="black" points="224.34,-238.98 234.78,-237.18 225.5,-232.07 224.34,-238.98"/>
</g>
<!-- 140525177173520 -->
<g id="node20" class="node">
<title>140525177173520</title>
<polygon fill="none" stroke="black" points="2300.38,-83.5 2300.38,-119.5 2499.88,-119.5 2499.88,-83.5 2300.38,-83.5"/>
<text text-anchor="middle" x="2319.63" y="-96.7" font-family="Times,serif" font-size="14.00">data</text>
<polyline fill="none" stroke="black" points="2338.88,-84 2338.88,-119.5"/>
<text text-anchor="middle" x="2378.75" y="-96.7" font-family="Times,serif" font-size="14.00">data 2.2610</text>
<polyline fill="none" stroke="black" points="2418.63,-84 2418.63,-119.5"/>
<text text-anchor="middle" x="2459.25" y="-96.7" font-family="Times,serif" font-size="14.00">grad 0.0000</text>
</g>
<!-- 140525177173712**2 -->
<g id="node23" class="node">
<title>140525177173712**2</title>
<ellipse fill="none" stroke="black" cx="2562.88" cy="-101.5" rx="27" ry="18"/>
<text text-anchor="middle" x="2562.88" y="-96.45" font-family="Times,serif" font-size="14.00">**2</text>
</g>
<!-- 140525177173520&#45;&gt;140525177173712**2 -->
<g id="edge26" class="edge">
<title>140525177173520&#45;&gt;140525177173712**2</title>
<path fill="none" stroke="black" d="M2499.73,-101.5C2508.55,-101.5 2517.06,-101.5 2524.8,-101.5"/>
<polygon fill="black" stroke="black" points="2524.55,-105 2534.55,-101.5 2524.55,-98 2524.55,-105"/>
</g>
<!-- 140525177173520+&#45;&gt;140525177173520 -->
<g id="edge7" class="edge">
<title>140525177173520+&#45;&gt;140525177173520</title>
<path fill="none" stroke="black" d="M2264.56,-101.5C2271.98,-101.5 2280.55,-101.5 2289.7,-101.5"/>
<polygon fill="black" stroke="black" points="2289.67,-105 2299.67,-101.5 2289.67,-98 2289.67,-105"/>
</g>
<!-- 140525177173712 -->
<g id="node22" class="node">
<title>140525177173712</title>
<polygon fill="none" stroke="black" points="2625.88,-83.5 2625.88,-119.5 2825.38,-119.5 2825.38,-83.5 2625.88,-83.5"/>
<text text-anchor="middle" x="2645.13" y="-96.7" font-family="Times,serif" font-size="14.00">data</text>
<polyline fill="none" stroke="black" points="2664.38,-84 2664.38,-119.5"/>
<text text-anchor="middle" x="2704.25" y="-96.7" font-family="Times,serif" font-size="14.00">data 5.1120</text>
<polyline fill="none" stroke="black" points="2744.13,-84 2744.13,-119.5"/>
<text text-anchor="middle" x="2784.75" y="-96.7" font-family="Times,serif" font-size="14.00">grad 0.0000</text>
</g>
<!-- 140525177173904+ -->
<g id="node28" class="node">
<title>140525177173904+</title>
<ellipse fill="none" stroke="black" cx="2888.38" cy="-73.5" rx="27" ry="18"/>
<text text-anchor="middle" x="2888.38" y="-68.45" font-family="Times,serif" font-size="14.00">+</text>
</g>
<!-- 140525177173712&#45;&gt;140525177173904+ -->
<g id="edge19" class="edge">
<title>140525177173712&#45;&gt;140525177173904+</title>
<path fill="none" stroke="black" d="M2825.23,-84.33C2834.41,-82.73 2843.27,-81.18 2851.27,-79.79"/>
<polygon fill="black" stroke="black" points="2851.71,-83.09 2860.96,-77.93 2850.51,-76.2 2851.71,-83.09"/>
</g>
<!-- 140525177173712**2&#45;&gt;140525177173712 -->
<g id="edge8" class="edge">
<title>140525177173712**2&#45;&gt;140525177173712</title>
<path fill="none" stroke="black" d="M2590.06,-101.5C2597.48,-101.5 2606.05,-101.5 2615.2,-101.5"/>
<polygon fill="black" stroke="black" points="2615.17,-105 2625.17,-101.5 2615.17,-98 2615.17,-105"/>
</g>
<!-- 140525177171696 -->
<g id="node24" class="node">
<title>140525177171696</title>
<polygon fill="none" stroke="black" points="325.5,-223.5 325.5,-259.5 525,-259.5 525,-223.5 325.5,-223.5"/>
<text text-anchor="middle" x="344.75" y="-236.7" font-family="Times,serif" font-size="14.00">data</text>
<polyline fill="none" stroke="black" points="364,-224 364,-259.5"/>
<text text-anchor="middle" x="403.88" y="-236.7" font-family="Times,serif" font-size="14.00">data 0.3560</text>
<polyline fill="none" stroke="black" points="443.75,-224 443.75,-259.5"/>
<text text-anchor="middle" x="484.38" y="-236.7" font-family="Times,serif" font-size="14.00">grad 0.0000</text>
</g>
<!-- 140525177171696&#45;&gt;140525177172752+ -->
<g id="edge20" class="edge">
<title>140525177171696&#45;&gt;140525177172752+</title>
<path fill="none" stroke="black" d="M524.85,-224.33C534.04,-222.73 542.89,-221.18 550.89,-219.79"/>
<polygon fill="black" stroke="black" points="551.33,-223.09 560.58,-217.93 550.13,-216.2 551.33,-223.09"/>
</g>
<!-- 140525177171696*&#45;&gt;140525177171696 -->
<g id="edge9" class="edge">
<title>140525177171696*&#45;&gt;140525177171696</title>
<path fill="none" stroke="black" d="M289.69,-241.5C297.1,-241.5 305.67,-241.5 314.82,-241.5"/>
<polygon fill="black" stroke="black" points="314.8,-245 324.8,-241.5 314.8,-238 314.8,-245"/>
</g>
<!-- 140525177173856 -->
<g id="node26" class="node">
<title>140525177173856</title>
<polygon fill="none" stroke="black" points="2625.88,-28.5 2625.88,-64.5 2825.38,-64.5 2825.38,-28.5 2625.88,-28.5"/>
<text text-anchor="middle" x="2645.13" y="-41.7" font-family="Times,serif" font-size="14.00">data</text>
<polyline fill="none" stroke="black" points="2664.38,-29 2664.38,-64.5"/>
<text text-anchor="middle" x="2704.25" y="-41.7" font-family="Times,serif" font-size="14.00">data 0.0000</text>
<polyline fill="none" stroke="black" points="2744.13,-29 2744.13,-64.5"/>
<text text-anchor="middle" x="2784.75" y="-41.7" font-family="Times,serif" font-size="14.00">grad 0.0000</text>
</g>
<!-- 140525177173856&#45;&gt;140525177173904+ -->
<g id="edge16" class="edge">
<title>140525177173856&#45;&gt;140525177173904+</title>
<path fill="none" stroke="black" d="M2825.23,-63.06C2834.33,-64.59 2843.1,-66.06 2851.04,-67.4"/>
<polygon fill="black" stroke="black" points="2850.22,-70.98 2860.66,-69.18 2851.38,-64.07 2850.22,-70.98"/>
</g>
<!-- 140525177173904 -->
<g id="node27" class="node">
<title>140525177173904</title>
<polygon fill="none" stroke="black" points="2951.38,-55.5 2951.38,-91.5 3150.88,-91.5 3150.88,-55.5 2951.38,-55.5"/>
<text text-anchor="middle" x="2970.63" y="-68.7" font-family="Times,serif" font-size="14.00">data</text>
<polyline fill="none" stroke="black" points="2989.88,-56 2989.88,-91.5"/>
<text text-anchor="middle" x="3029.75" y="-68.7" font-family="Times,serif" font-size="14.00">data 5.1120</text>
<polyline fill="none" stroke="black" points="3069.63,-56 3069.63,-91.5"/>
<text text-anchor="middle" x="3110.25" y="-68.7" font-family="Times,serif" font-size="14.00">grad 0.0000</text>
</g>
<!-- 140525177173904&#45;&gt;140525177174096* -->
<g id="edge17" class="edge">
<title>140525177173904&#45;&gt;140525177174096*</title>
<path fill="none" stroke="black" d="M3150.73,-56.33C3159.91,-54.73 3168.77,-53.18 3176.77,-51.79"/>
<polygon fill="black" stroke="black" points="3177.21,-55.09 3186.46,-49.93 3176.01,-48.2 3177.21,-55.09"/>
</g>
<!-- 140525177173904+&#45;&gt;140525177173904 -->
<g id="edge10" class="edge">
<title>140525177173904+&#45;&gt;140525177173904</title>
<path fill="none" stroke="black" d="M2915.56,-73.5C2922.98,-73.5 2931.55,-73.5 2940.7,-73.5"/>
<polygon fill="black" stroke="black" points="2940.67,-77 2950.67,-73.5 2940.67,-70 2940.67,-77"/>
</g>
<!-- 140525177171888 -->
<g id="node29" class="node">
<title>140525177171888</title>
<polygon fill="none" stroke="black" points="325.5,-168.5 325.5,-204.5 525,-204.5 525,-168.5 325.5,-168.5"/>
<text text-anchor="middle" x="344.75" y="-181.7" font-family="Times,serif" font-size="14.00">data</text>
<polyline fill="none" stroke="black" points="364,-169 364,-204.5"/>
<text text-anchor="middle" x="403.88" y="-181.7" font-family="Times,serif" font-size="14.00">data 0.0000</text>
<polyline fill="none" stroke="black" points="443.75,-169 443.75,-204.5"/>
<text text-anchor="middle" x="484.38" y="-181.7" font-family="Times,serif" font-size="14.00">grad 0.0000</text>
</g>
<!-- 140525177171888&#45;&gt;140525177172752+ -->
<g id="edge21" class="edge">
<title>140525177171888&#45;&gt;140525177172752+</title>
<path fill="none" stroke="black" d="M524.85,-203.06C533.95,-204.59 542.72,-206.06 550.66,-207.4"/>
<polygon fill="black" stroke="black" points="549.84,-210.98 560.28,-209.18 551,-204.07 549.84,-210.98"/>
</g>
</g>
</svg>
