<?xml version="1.0" encoding="UTF-8" standalone="no"?>
<!DOCTYPE svg PUBLIC "-//W3C//DTD SVG 1.1//EN"
 "http://www.w3.org/Graphics/SVG/1.1/DTD/svg11.dtd">
<!-- Generated by graphviz version 8.0.5 (20230430.1635)
 -->
<!-- Pages: 1 -->
<svg width="3507pt" height="296pt"
 viewBox="0.00 0.00 3506.88 296.00" xmlns="http://www.w3.org/2000/svg" xmlns:xlink="http://www.w3.org/1999/xlink">
<g id="graph0" class="graph" transform="scale(1 1) rotate(0) translate(4 292)">
<polygon fill="white" stroke="none" points="-4,4 -4,-292 3502.88,-292 3502.88,4 -4,4"/>
<!-- 140525177171984 -->
<g id="node1" class="node">
<title>140525177171984</title>
<polygon fill="none" stroke="black" points="0,-251.5 0,-287.5 204,-287.5 204,-251.5 0,-251.5"/>
<text text-anchor="middle" x="19.25" y="-264.7" font-family="Times,serif" font-size="14.00">data</text>
<polyline fill="none" stroke="black" points="38.5,-252 38.5,-287.5"/>
<text text-anchor="middle" x="78.38" y="-264.7" font-family="Times,serif" font-size="14.00">data 1.5115</text>
<polyline fill="none" stroke="black" points="118.25,-252 118.25,-287.5"/>
<text text-anchor="middle" x="161.12" y="-264.7" font-family="Times,serif" font-size="14.00">grad &#45;0.0709</text>
</g>
<!-- 140525177171696* -->
<g id="node25" class="node">
<title>140525177171696*</title>
<ellipse fill="none" stroke="black" cx="267" cy="-241.5" rx="27" ry="18"/>
<text text-anchor="middle" x="267" y="-236.45" font-family="Times,serif" font-size="14.00">*</text>
</g>
<!-- 140525177171984&#45;&gt;140525177171696* -->
<g id="edge15" class="edge">
<title>140525177171984&#45;&gt;140525177171696*</title>
<path fill="none" stroke="black" d="M203.91,-252.17C213.03,-250.6 221.81,-249.09 229.74,-247.73"/>
<polygon fill="black" stroke="black" points="230.09,-251.05 239.35,-245.91 228.91,-244.15 230.09,-251.05"/>
</g>
<!-- 140525177174048 -->
<g id="node2" class="node">
<title>140525177174048</title>
<polygon fill="none" stroke="black" points="2973.88,-0.5 2973.88,-36.5 3173.38,-36.5 3173.38,-0.5 2973.88,-0.5"/>
<text text-anchor="middle" x="2993.13" y="-13.7" font-family="Times,serif" font-size="14.00">data</text>
<polyline fill="none" stroke="black" points="3012.38,-1 3012.38,-36.5"/>
<text text-anchor="middle" x="3052.25" y="-13.7" font-family="Times,serif" font-size="14.00">data 1.0000</text>
<polyline fill="none" stroke="black" points="3092.13,-1 3092.13,-36.5"/>
<text text-anchor="middle" x="3132.75" y="-13.7" font-family="Times,serif" font-size="14.00">grad 5.1120</text>
</g>
<!-- 140525177174096* -->
<g id="node4" class="node">
<title>140525177174096*</title>
<ellipse fill="none" stroke="black" cx="3236.38" cy="-45.5" rx="27" ry="18"/>
<text text-anchor="middle" x="3236.38" y="-40.45" font-family="Times,serif" font-size="14.00">*</text>
</g>
<!-- 140525177174048&#45;&gt;140525177174096* -->
<g id="edge23" class="edge">
<title>140525177174048&#45;&gt;140525177174096*</title>
<path fill="none" stroke="black" d="M3173.23,-35.06C3182.33,-36.59 3191.1,-38.06 3199.04,-39.4"/>
<polygon fill="black" stroke="black" points="3198.22,-42.98 3208.66,-41.18 3199.38,-36.07 3198.22,-42.98"/>
</g>
<!-- 140525177174096 -->
<g id="node3" class="node">
<title>140525177174096</title>
<polygon fill="none" stroke="black" points="3299.38,-27.5 3299.38,-63.5 3498.88,-63.5 3498.88,-27.5 3299.38,-27.5"/>
<text text-anchor="middle" x="3318.63" y="-40.7" font-family="Times,serif" font-size="14.00">data</text>
<polyline fill="none" stroke="black" points="3337.88,-28 3337.88,-63.5"/>
<text text-anchor="middle" x="3377.75" y="-40.7" font-family="Times,serif" font-size="14.00">data 5.1120</text>
<polyline fill="none" stroke="black" points="3417.63,-28 3417.63,-63.5"/>
<text text-anchor="middle" x="3458.25" y="-40.7" font-family="Times,serif" font-size="14.00">grad 1.0000</text>
</g>
<!-- 140525177174096*&#45;&gt;140525177174096 -->
<g id="edge1" class="edge">
<title>140525177174096*&#45;&gt;140525177174096</title>
<path fill="none" stroke="black" d="M3263.56,-45.5C3270.98,-45.5 3279.55,-45.5 3288.7,-45.5"/>
<polygon fill="black" stroke="black" points="3288.67,-49 3298.67,-45.5 3288.67,-42 3288.67,-49"/>
</g>
<!-- 140525177172272 -->
<g id="node5" class="node">
<title>140525177172272</title>
<polygon fill="none" stroke="black" points="1002.88,-140.5 1002.88,-176.5 1206.88,-176.5 1206.88,-140.5 1002.88,-140.5"/>
<text text-anchor="middle" x="1022.13" y="-153.7" font-family="Times,serif" font-size="14.00">data</text>
<polyline fill="none" stroke="black" points="1041.38,-141 1041.38,-176.5"/>
<text text-anchor="middle" x="1081.25" y="-153.7" font-family="Times,serif" font-size="14.00">data 0.2275</text>
<polyline fill="none" stroke="black" points="1121.13,-141 1121.13,-176.5"/>
<text text-anchor="middle" x="1164" y="-153.7" font-family="Times,serif" font-size="14.00">grad &#45;1.6097</text>
</g>
<!-- 140525177173088* -->
<g id="node15" class="node">
<title>140525177173088*</title>
<ellipse fill="none" stroke="black" cx="1269.88" cy="-185.5" rx="27" ry="18"/>
<text text-anchor="middle" x="1269.88" y="-180.45" font-family="Times,serif" font-size="14.00">*</text>
</g>
<!-- 140525177172272&#45;&gt;140525177173088* -->
<g id="edge12" class="edge">
<title>140525177172272&#45;&gt;140525177173088*</title>
<path fill="none" stroke="black" d="M1206.79,-175.22C1215.91,-176.73 1224.68,-178.18 1232.62,-179.49"/>
<polygon fill="black" stroke="black" points="1231.79,-183.07 1242.23,-181.25 1232.94,-176.16 1231.79,-183.07"/>
</g>
<!-- 140525177172560 -->
<g id="node6" class="node">
<title>140525177172560</title>
<polygon fill="none" stroke="black" points="1332.88,-112.5 1332.88,-148.5 1536.88,-148.5 1536.88,-112.5 1332.88,-112.5"/>
<text text-anchor="middle" x="1352.13" y="-125.7" font-family="Times,serif" font-size="14.00">data</text>
<polyline fill="none" stroke="black" points="1371.38,-113 1371.38,-148.5"/>
<text text-anchor="middle" x="1411.25" y="-125.7" font-family="Times,serif" font-size="14.00">data 0.4522</text>
<polyline fill="none" stroke="black" points="1451.13,-113 1451.13,-148.5"/>
<text text-anchor="middle" x="1494" y="-125.7" font-family="Times,serif" font-size="14.00">grad &#45;4.5220</text>
</g>
<!-- 140525177173280+ -->
<g id="node17" class="node">
<title>140525177173280+</title>
<ellipse fill="none" stroke="black" cx="1599.88" cy="-157.5" rx="27" ry="18"/>
<text text-anchor="middle" x="1599.88" y="-152.45" font-family="Times,serif" font-size="14.00">+</text>
</g>
<!-- 140525177172560&#45;&gt;140525177173280+ -->
<g id="edge28" class="edge">
<title>140525177172560&#45;&gt;140525177173280+</title>
<path fill="none" stroke="black" d="M1536.79,-147.22C1545.91,-148.73 1554.68,-150.18 1562.62,-151.49"/>
<polygon fill="black" stroke="black" points="1561.79,-155.07 1572.23,-153.25 1562.94,-148.16 1561.79,-155.07"/>
</g>
<!-- 140525177172752 -->
<g id="node7" class="node">
<title>140525177172752</title>
<polygon fill="none" stroke="black" points="660,-195.5 660,-231.5 864,-231.5 864,-195.5 660,-195.5"/>
<text text-anchor="middle" x="679.25" y="-208.7" font-family="Times,serif" font-size="14.00">data</text>
<polyline fill="none" stroke="black" points="698.5,-196 698.5,-231.5"/>
<text text-anchor="middle" x="738.38" y="-208.7" font-family="Times,serif" font-size="14.00">data 0.3560</text>
<polyline fill="none" stroke="black" points="778.25,-196 778.25,-231.5"/>
<text text-anchor="middle" x="821.12" y="-208.7" font-family="Times,serif" font-size="14.00">grad &#45;0.3009</text>
</g>
<!-- 140525177172800ReLU -->
<g id="node10" class="node">
<title>140525177172800ReLU</title>
<ellipse fill="none" stroke="black" cx="933.44" cy="-213.5" rx="33.44" ry="18"/>
<text text-anchor="middle" x="933.44" y="-208.45" font-family="Times,serif" font-size="14.00">ReLU</text>
</g>
<!-- 140525177172752&#45;&gt;140525177172800ReLU -->
<g id="edge18" class="edge">
<title>140525177172752&#45;&gt;140525177172800ReLU</title>
<path fill="none" stroke="black" d="M863.52,-213.5C872.34,-213.5 880.91,-213.5 888.86,-213.5"/>
<polygon fill="black" stroke="black" points="888.62,-217 898.62,-213.5 888.62,-210 888.62,-217"/>
</g>
<!-- 140525177172752+ -->
<g id="node8" class="node">
<title>140525177172752+</title>
<ellipse fill="none" stroke="black" cx="597" cy="-213.5" rx="27" ry="18"/>
<text text-anchor="middle" x="597" y="-208.45" font-family="Times,serif" font-size="14.00">+</text>
</g>
<!-- 140525177172752+&#45;&gt;140525177172752 -->
<g id="edge2" class="edge">
<title>140525177172752+&#45;&gt;140525177172752</title>
<path fill="none" stroke="black" d="M624.19,-213.5C631.56,-213.5 640.08,-213.5 649.19,-213.5"/>
<polygon fill="black" stroke="black" points="649.11,-217 659.11,-213.5 649.11,-210 649.11,-217"/>
</g>
<!-- 140525177172800 -->
<g id="node9" class="node">
<title>140525177172800</title>
<polygon fill="none" stroke="black" points="1002.88,-195.5 1002.88,-231.5 1206.88,-231.5 1206.88,-195.5 1002.88,-195.5"/>
<text text-anchor="middle" x="1022.13" y="-208.7" font-family="Times,serif" font-size="14.00">data</text>
<polyline fill="none" stroke="black" points="1041.38,-196 1041.38,-231.5"/>
<text text-anchor="middle" x="1081.25" y="-208.7" font-family="Times,serif" font-size="14.00">data 0.3560</text>
<polyline fill="none" stroke="black" points="1121.13,-196 1121.13,-231.5"/>
<text text-anchor="middle" x="1164" y="-208.7" font-family="Times,serif" font-size="14.00">grad &#45;0.3009</text>
</g>
<!-- 140525177172800&#45;&gt;140525177173088* -->
<g id="edge13" class="edge">
<title>140525177172800&#45;&gt;140525177173088*</title>
<path fill="none" stroke="black" d="M1206.79,-196.17C1215.91,-194.6 1224.68,-193.09 1232.62,-191.73"/>
<polygon fill="black" stroke="black" points="1232.97,-195.05 1242.23,-189.91 1231.78,-188.15 1232.97,-195.05"/>
</g>
<!-- 140525177172800ReLU&#45;&gt;140525177172800 -->
<g id="edge3" class="edge">
<title>140525177172800ReLU&#45;&gt;140525177172800</title>
<path fill="none" stroke="black" d="M967.11,-213.5C974.63,-213.5 983.04,-213.5 991.9,-213.5"/>
<polygon fill="black" stroke="black" points="991.9,-217 1001.9,-213.5 991.9,-210 991.9,-217"/>
</g>
<!-- 140525177172848 -->
<g id="node11" class="node">
<title>140525177172848</title>
<polygon fill="none" stroke="black" points="1662.88,-84.5 1662.88,-120.5 1866.88,-120.5 1866.88,-84.5 1662.88,-84.5"/>
<text text-anchor="middle" x="1682.13" y="-97.7" font-family="Times,serif" font-size="14.00">data</text>
<polyline fill="none" stroke="black" points="1701.38,-85 1701.38,-120.5"/>
<text text-anchor="middle" x="1743.5" y="-97.7" font-family="Times,serif" font-size="14.00">data &#45;1.0000</text>
<polyline fill="none" stroke="black" points="1785.63,-85 1785.63,-120.5"/>
<text text-anchor="middle" x="1826.25" y="-97.7" font-family="Times,serif" font-size="14.00">grad 0.1071</text>
</g>
<!-- 140525177172896* -->
<g id="node13" class="node">
<title>140525177172896*</title>
<ellipse fill="none" stroke="black" cx="1929.88" cy="-129.5" rx="27" ry="18"/>
<text text-anchor="middle" x="1929.88" y="-124.45" font-family="Times,serif" font-size="14.00">*</text>
</g>
<!-- 140525177172848&#45;&gt;140525177172896* -->
<g id="edge25" class="edge">
<title>140525177172848&#45;&gt;140525177172896*</title>
<path fill="none" stroke="black" d="M1866.79,-119.22C1875.91,-120.73 1884.68,-122.18 1892.62,-123.49"/>
<polygon fill="black" stroke="black" points="1891.79,-127.07 1902.23,-125.25 1892.94,-120.16 1891.79,-127.07"/>
</g>
<!-- 140525177172896 -->
<g id="node12" class="node">
<title>140525177172896</title>
<polygon fill="none" stroke="black" points="1992.88,-111.5 1992.88,-147.5 2196.88,-147.5 2196.88,-111.5 1992.88,-111.5"/>
<text text-anchor="middle" x="2012.13" y="-124.7" font-family="Times,serif" font-size="14.00">data</text>
<polyline fill="none" stroke="black" points="2031.38,-112 2031.38,-147.5"/>
<text text-anchor="middle" x="2073.5" y="-124.7" font-family="Times,serif" font-size="14.00">data &#45;0.0237</text>
<polyline fill="none" stroke="black" points="2115.63,-112 2115.63,-147.5"/>
<text text-anchor="middle" x="2156.25" y="-124.7" font-family="Times,serif" font-size="14.00">grad 4.5220</text>
</g>
<!-- 140525177173520+ -->
<g id="node21" class="node">
<title>140525177173520+</title>
<ellipse fill="none" stroke="black" cx="2259.88" cy="-101.5" rx="27" ry="18"/>
<text text-anchor="middle" x="2259.88" y="-96.45" font-family="Times,serif" font-size="14.00">+</text>
</g>
<!-- 140525177172896&#45;&gt;140525177173520+ -->
<g id="edge14" class="edge">
<title>140525177172896&#45;&gt;140525177173520+</title>
<path fill="none" stroke="black" d="M2196.79,-112.17C2205.91,-110.6 2214.68,-109.09 2222.62,-107.73"/>
<polygon fill="black" stroke="black" points="2222.97,-111.05 2232.23,-105.91 2221.78,-104.15 2222.97,-111.05"/>
</g>
<!-- 140525177172896*&#45;&gt;140525177172896 -->
<g id="edge4" class="edge">
<title>140525177172896*&#45;&gt;140525177172896</title>
<path fill="none" stroke="black" d="M1957.07,-129.5C1964.44,-129.5 1972.96,-129.5 1982.06,-129.5"/>
<polygon fill="black" stroke="black" points="1981.99,-133 1991.99,-129.5 1981.99,-126 1981.99,-133"/>
</g>
<!-- 140525177173088 -->
<g id="node14" class="node">
<title>140525177173088</title>
<polygon fill="none" stroke="black" points="1332.88,-167.5 1332.88,-203.5 1536.88,-203.5 1536.88,-167.5 1332.88,-167.5"/>
<text text-anchor="middle" x="1352.13" y="-180.7" font-family="Times,serif" font-size="14.00">data</text>
<polyline fill="none" stroke="black" points="1371.38,-168 1371.38,-203.5"/>
<text text-anchor="middle" x="1411.25" y="-180.7" font-family="Times,serif" font-size="14.00">data 0.0237</text>
<polyline fill="none" stroke="black" points="1451.13,-168 1451.13,-203.5"/>
<text text-anchor="middle" x="1494" y="-180.7" font-family="Times,serif" font-size="14.00">grad &#45;4.5220</text>
</g>
<!-- 140525177173088&#45;&gt;140525177173280+ -->
<g id="edge11" class="edge">
<title>140525177173088&#45;&gt;140525177173280+</title>
<path fill="none" stroke="black" d="M1536.79,-168.17C1545.91,-166.6 1554.68,-165.09 1562.62,-163.73"/>
<polygon fill="black" stroke="black" points="1562.97,-167.05 1572.23,-161.91 1561.78,-160.15 1562.97,-167.05"/>
</g>
<!-- 140525177173088*&#45;&gt;140525177173088 -->
<g id="edge5" class="edge">
<title>140525177173088*&#45;&gt;140525177173088</title>
<path fill="none" stroke="black" d="M1297.07,-185.5C1304.44,-185.5 1312.96,-185.5 1322.06,-185.5"/>
<polygon fill="black" stroke="black" points="1321.99,-189 1331.99,-185.5 1321.99,-182 1321.99,-189"/>
</g>
<!-- 140525177173280 -->
<g id="node16" class="node">
<title>140525177173280</title>
<polygon fill="none" stroke="black" points="1662.88,-139.5 1662.88,-175.5 1866.88,-175.5 1866.88,-139.5 1662.88,-139.5"/>
<text text-anchor="middle" x="1682.13" y="-152.7" font-family="Times,serif" font-size="14.00">data</text>
<polyline fill="none" stroke="black" points="1701.38,-140 1701.38,-175.5"/>
<text text-anchor="middle" x="1741.25" y="-152.7" font-family="Times,serif" font-size="14.00">data 0.0237</text>
<polyline fill="none" stroke="black" points="1781.13,-140 1781.13,-175.5"/>
<text text-anchor="middle" x="1824" y="-152.7" font-family="Times,serif" font-size="14.00">grad &#45;4.5220</text>
</g>
<!-- 140525177173280&#45;&gt;140525177172896* -->
<g id="edge24" class="edge">
<title>140525177173280&#45;&gt;140525177172896*</title>
<path fill="none" stroke="black" d="M1866.79,-140.17C1875.91,-138.6 1884.68,-137.09 1892.62,-135.73"/>
<polygon fill="black" stroke="black" points="1892.97,-139.05 1902.23,-133.91 1891.78,-132.15 1892.97,-139.05"/>
</g>
<!-- 140525177173280+&#45;&gt;140525177173280 -->
<g id="edge6" class="edge">
<title>140525177173280+&#45;&gt;140525177173280</title>
<path fill="none" stroke="black" d="M1627.07,-157.5C1634.44,-157.5 1642.96,-157.5 1652.06,-157.5"/>
<polygon fill="black" stroke="black" points="1651.99,-161 1661.99,-157.5 1651.99,-154 1651.99,-161"/>
</g>
<!-- 140525177173472 -->
<g id="node18" class="node">
<title>140525177173472</title>
<polygon fill="none" stroke="black" points="1995.13,-56.5 1995.13,-92.5 2194.63,-92.5 2194.63,-56.5 1995.13,-56.5"/>
<text text-anchor="middle" x="2014.38" y="-69.7" font-family="Times,serif" font-size="14.00">data</text>
<polyline fill="none" stroke="black" points="2033.63,-57 2033.63,-92.5"/>
<text text-anchor="middle" x="2073.5" y="-69.7" font-family="Times,serif" font-size="14.00">data 2.2847</text>
<polyline fill="none" stroke="black" points="2113.38,-57 2113.38,-92.5"/>
<text text-anchor="middle" x="2154" y="-69.7" font-family="Times,serif" font-size="14.00">grad 4.5220</text>
</g>
<!-- 140525177173472&#45;&gt;140525177173520+ -->
<g id="edge22" class="edge">
<title>140525177173472&#45;&gt;140525177173520+</title>
<path fill="none" stroke="black" d="M2194.45,-90.83C2204.43,-92.48 2214.05,-94.07 2222.68,-95.5"/>
<polygon fill="black" stroke="black" points="2221.95,-99.1 2232.39,-97.28 2223.1,-92.19 2221.95,-99.1"/>
</g>
<!-- 140525177171456 -->
<g id="node19" class="node">
<title>140525177171456</title>
<polygon fill="none" stroke="black" points="0,-196.5 0,-232.5 204,-232.5 204,-196.5 0,-196.5"/>
<text text-anchor="middle" x="19.25" y="-209.7" font-family="Times,serif" font-size="14.00">data</text>
<polyline fill="none" stroke="black" points="38.5,-197 38.5,-232.5"/>
<text text-anchor="middle" x="78.38" y="-209.7" font-family="Times,serif" font-size="14.00">data 0.2810</text>
<polyline fill="none" stroke="black" points="118.25,-197 118.25,-232.5"/>
<text text-anchor="middle" x="161.12" y="-209.7" font-family="Times,serif" font-size="14.00">grad &#45;0.4547</text>
</g>
<!-- 140525177171456&#45;&gt;140525177171696* -->
<g id="edge27" class="edge">
<title>140525177171456&#45;&gt;140525177171696*</title>
<path fill="none" stroke="black" d="M203.91,-231.22C213.03,-232.73 221.81,-234.18 229.74,-235.49"/>
<polygon fill="black" stroke="black" points="228.92,-239.07 239.35,-237.25 230.06,-232.16 228.92,-239.07"/>
</g>
<!-- 140525177173520 -->
<g id="node20" class="node">
<title>140525177173520</title>
<polygon fill="none" stroke="black" points="2322.88,-83.5 2322.88,-119.5 2522.38,-119.5 2522.38,-83.5 2322.88,-83.5"/>
<text text-anchor="middle" x="2342.13" y="-96.7" font-family="Times,serif" font-size="14.00">data</text>
<polyline fill="none" stroke="black" points="2361.38,-84 2361.38,-119.5"/>
<text text-anchor="middle" x="2401.25" y="-96.7" font-family="Times,serif" font-size="14.00">data 2.2610</text>
<polyline fill="none" stroke="black" points="2441.13,-84 2441.13,-119.5"/>
<text text-anchor="middle" x="2481.75" y="-96.7" font-family="Times,serif" font-size="14.00">grad 4.5220</text>
</g>
<!-- 140525177173712**2 -->
<g id="node23" class="node">
<title>140525177173712**2</title>
<ellipse fill="none" stroke="black" cx="2585.38" cy="-101.5" rx="27" ry="18"/>
<text text-anchor="middle" x="2585.38" y="-96.45" font-family="Times,serif" font-size="14.00">**2</text>
</g>
<!-- 140525177173520&#45;&gt;140525177173712**2 -->
<g id="edge26" class="edge">
<title>140525177173520&#45;&gt;140525177173712**2</title>
<path fill="none" stroke="black" d="M2522.23,-101.5C2531.05,-101.5 2539.56,-101.5 2547.3,-101.5"/>
<polygon fill="black" stroke="black" points="2547.05,-105 2557.05,-101.5 2547.05,-98 2547.05,-105"/>
</g>
<!-- 140525177173520+&#45;&gt;140525177173520 -->
<g id="edge7" class="edge">
<title>140525177173520+&#45;&gt;140525177173520</title>
<path fill="none" stroke="black" d="M2287.06,-101.5C2294.48,-101.5 2303.05,-101.5 2312.2,-101.5"/>
<polygon fill="black" stroke="black" points="2312.17,-105 2322.17,-101.5 2312.17,-98 2312.17,-105"/>
</g>
<!-- 140525177173712 -->
<g id="node22" class="node">
<title>140525177173712</title>
<polygon fill="none" stroke="black" points="2648.38,-83.5 2648.38,-119.5 2847.88,-119.5 2847.88,-83.5 2648.38,-83.5"/>
<text text-anchor="middle" x="2667.63" y="-96.7" font-family="Times,serif" font-size="14.00">data</text>
<polyline fill="none" stroke="black" points="2686.88,-84 2686.88,-119.5"/>
<text text-anchor="middle" x="2726.75" y="-96.7" font-family="Times,serif" font-size="14.00">data 5.1120</text>
<polyline fill="none" stroke="black" points="2766.63,-84 2766.63,-119.5"/>
<text text-anchor="middle" x="2807.25" y="-96.7" font-family="Times,serif" font-size="14.00">grad 1.0000</text>
</g>
<!-- 140525177173904+ -->
<g id="node28" class="node">
<title>140525177173904+</title>
<ellipse fill="none" stroke="black" cx="2910.88" cy="-73.5" rx="27" ry="18"/>
<text text-anchor="middle" x="2910.88" y="-68.45" font-family="Times,serif" font-size="14.00">+</text>
</g>
<!-- 140525177173712&#45;&gt;140525177173904+ -->
<g id="edge19" class="edge">
<title>140525177173712&#45;&gt;140525177173904+</title>
<path fill="none" stroke="black" d="M2847.73,-84.33C2856.91,-82.73 2865.77,-81.18 2873.77,-79.79"/>
<polygon fill="black" stroke="black" points="2874.21,-83.09 2883.46,-77.93 2873.01,-76.2 2874.21,-83.09"/>
</g>
<!-- 140525177173712**2&#45;&gt;140525177173712 -->
<g id="edge8" class="edge">
<title>140525177173712**2&#45;&gt;140525177173712</title>
<path fill="none" stroke="black" d="M2612.56,-101.5C2619.98,-101.5 2628.55,-101.5 2637.7,-101.5"/>
<polygon fill="black" stroke="black" points="2637.67,-105 2647.67,-101.5 2637.67,-98 2637.67,-105"/>
</g>
<!-- 140525177171696 -->
<g id="node24" class="node">
<title>140525177171696</title>
<polygon fill="none" stroke="black" points="330,-223.5 330,-259.5 534,-259.5 534,-223.5 330,-223.5"/>
<text text-anchor="middle" x="349.25" y="-236.7" font-family="Times,serif" font-size="14.00">data</text>
<polyline fill="none" stroke="black" points="368.5,-224 368.5,-259.5"/>
<text text-anchor="middle" x="408.38" y="-236.7" font-family="Times,serif" font-size="14.00">data 0.3560</text>
<polyline fill="none" stroke="black" points="448.25,-224 448.25,-259.5"/>
<text text-anchor="middle" x="491.12" y="-236.7" font-family="Times,serif" font-size="14.00">grad &#45;0.3009</text>
</g>
<!-- 140525177171696&#45;&gt;140525177172752+ -->
<g id="edge20" class="edge">
<title>140525177171696&#45;&gt;140525177172752+</title>
<path fill="none" stroke="black" d="M533.91,-224.17C543.03,-222.6 551.81,-221.09 559.74,-219.73"/>
<polygon fill="black" stroke="black" points="560.09,-223.05 569.35,-217.91 558.91,-216.15 560.09,-223.05"/>
</g>
<!-- 140525177171696*&#45;&gt;140525177171696 -->
<g id="edge9" class="edge">
<title>140525177171696*&#45;&gt;140525177171696</title>
<path fill="none" stroke="black" d="M294.19,-241.5C301.56,-241.5 310.08,-241.5 319.19,-241.5"/>
<polygon fill="black" stroke="black" points="319.11,-245 329.11,-241.5 319.11,-238 319.11,-245"/>
</g>
<!-- 140525177173856 -->
<g id="node26" class="node">
<title>140525177173856</title>
<polygon fill="none" stroke="black" points="2648.38,-28.5 2648.38,-64.5 2847.88,-64.5 2847.88,-28.5 2648.38,-28.5"/>
<text text-anchor="middle" x="2667.63" y="-41.7" font-family="Times,serif" font-size="14.00">data</text>
<polyline fill="none" stroke="black" points="2686.88,-29 2686.88,-64.5"/>
<text text-anchor="middle" x="2726.75" y="-41.7" font-family="Times,serif" font-size="14.00">data 0.0000</text>
<polyline fill="none" stroke="black" points="2766.63,-29 2766.63,-64.5"/>
<text text-anchor="middle" x="2807.25" y="-41.7" font-family="Times,serif" font-size="14.00">grad 1.0000</text>
</g>
<!-- 140525177173856&#45;&gt;140525177173904+ -->
<g id="edge16" class="edge">
<title>140525177173856&#45;&gt;140525177173904+</title>
<path fill="none" stroke="black" d="M2847.73,-63.06C2856.83,-64.59 2865.6,-66.06 2873.54,-67.4"/>
<polygon fill="black" stroke="black" points="2872.72,-70.98 2883.16,-69.18 2873.88,-64.07 2872.72,-70.98"/>
</g>
<!-- 140525177173904 -->
<g id="node27" class="node">
<title>140525177173904</title>
<polygon fill="none" stroke="black" points="2973.88,-55.5 2973.88,-91.5 3173.38,-91.5 3173.38,-55.5 2973.88,-55.5"/>
<text text-anchor="middle" x="2993.13" y="-68.7" font-family="Times,serif" font-size="14.00">data</text>
<polyline fill="none" stroke="black" points="3012.38,-56 3012.38,-91.5"/>
<text text-anchor="middle" x="3052.25" y="-68.7" font-family="Times,serif" font-size="14.00">data 5.1120</text>
<polyline fill="none" stroke="black" points="3092.13,-56 3092.13,-91.5"/>
<text text-anchor="middle" x="3132.75" y="-68.7" font-family="Times,serif" font-size="14.00">grad 1.0000</text>
</g>
<!-- 140525177173904&#45;&gt;140525177174096* -->
<g id="edge17" class="edge">
<title>140525177173904&#45;&gt;140525177174096*</title>
<path fill="none" stroke="black" d="M3173.23,-56.33C3182.41,-54.73 3191.27,-53.18 3199.27,-51.79"/>
<polygon fill="black" stroke="black" points="3199.71,-55.09 3208.96,-49.93 3198.51,-48.2 3199.71,-55.09"/>
</g>
<!-- 140525177173904+&#45;&gt;140525177173904 -->
<g id="edge10" class="edge">
<title>140525177173904+&#45;&gt;140525177173904</title>
<path fill="none" stroke="black" d="M2938.06,-73.5C2945.48,-73.5 2954.05,-73.5 2963.2,-73.5"/>
<polygon fill="black" stroke="black" points="2963.17,-77 2973.17,-73.5 2963.17,-70 2963.17,-77"/>
</g>
<!-- 140525177171888 -->
<g id="node29" class="node">
<title>140525177171888</title>
<polygon fill="none" stroke="black" points="330,-168.5 330,-204.5 534,-204.5 534,-168.5 330,-168.5"/>
<text text-anchor="middle" x="349.25" y="-181.7" font-family="Times,serif" font-size="14.00">data</text>
<polyline fill="none" stroke="black" points="368.5,-169 368.5,-204.5"/>
<text text-anchor="middle" x="408.38" y="-181.7" font-family="Times,serif" font-size="14.00">data 0.0301</text>
<polyline fill="none" stroke="black" points="448.25,-169 448.25,-204.5"/>
<text text-anchor="middle" x="491.12" y="-181.7" font-family="Times,serif" font-size="14.00">grad &#45;0.3009</text>
</g>
<!-- 140525177171888&#45;&gt;140525177172752+ -->
<g id="edge21" class="edge">
<title>140525177171888&#45;&gt;140525177172752+</title>
<path fill="none" stroke="black" d="M533.91,-203.22C543.03,-204.73 551.81,-206.18 559.74,-207.49"/>
<polygon fill="black" stroke="black" points="558.92,-211.07 569.35,-209.25 560.06,-204.16 558.92,-211.07"/>
</g>
</g>
</svg>
